<?xml version="1.0" encoding="utf-8"?>
<!-- Generator: Adobe Illustrator 26.2.1, SVG Export Plug-In . SVG Version: 6.00 Build 0)  -->
<svg version="1.1" id="Layer_1" xmlns="http://www.w3.org/2000/svg" xmlns:xlink="http://www.w3.org/1999/xlink" x="0px" y="0px"
	 viewBox="0 0 308 308" style="enable-background:new 0 0 308 308;" xml:space="preserve">
<style type="text/css">
	.st0{stroke:#00FE00;stroke-width:0.5;stroke-miterlimit:10;}
	.st1{fill:none;stroke:#00FE00;stroke-width:0.54;stroke-miterlimit:10;}
	.st2{stroke:#00FE00;stroke-miterlimit:10;stroke-dasharray:4,4;}
	.st3{fill:none;stroke:#00FE00;stroke-width:3;stroke-miterlimit:10;}
	.st4{fill:#00FE00;stroke:#00FE00;stroke-width:0.5;stroke-miterlimit:10;}
	.st5{stroke:#00FE00;stroke-width:3;stroke-miterlimit:10;}
	.st6{fill:none;stroke:#00FE00;stroke-width:0.54;stroke-miterlimit:10;stroke-dasharray:4,4;}
	.st7{fill:none;stroke:#00FE00;stroke-width:0.5;stroke-miterlimit:10;}
	.st8{stroke:#FFFFFF;}
	.st9{fill:none;stroke:#5E6369;stroke-linejoin:round;}
	.st10{fill:#575756;}
	.st11{stroke:#00FE00;stroke-miterlimit:10;}
	.st12{fill:none;stroke:#FFFFFF;stroke-miterlimit:10;}
	.st13{fill:#FFFFFF;}
	.st14{fill:#FFFFFF;filter:url(#Adobe_OpacityMaskFilter);}
	.st15{mask:url(#path-31-inside-1_148_4575_00000122716650140932085950000001249206571237901707_);fill:#FFFFFF;}
</style>
<g>
	<g>
		<path class="st0" d="M153.7,255.6c56.2,0,101.7-45.5,101.7-101.7c0-56.2-45.5-101.7-101.7-101.7C97.6,52.2,52,97.7,52,153.9
			C52,210,97.6,255.6,153.7,255.6z"/>
		<path class="st1" d="M153.7,271.8c65.1,0,117.9-52.8,117.9-117.9c0-65.1-52.8-117.9-117.9-117.9c-65.1,0-117.9,52.8-117.9,117.9
			C35.8,219,88.6,271.8,153.7,271.8z"/>
		<path class="st2" d="M238.8,281.1c70.3-46.9,89.2-142,42.3-212.3c-46.9-70.3-142-89.3-212.3-42.3c-70.3,46.9-89.3,142-42.3,212.3
			C73.4,309.1,168.4,328.1,238.8,281.1z"/>
		<path class="st3" d="M236.1,69.5c46.6,45.5,47.4,120.2,1.9,166.7c-45.5,46.6-120.2,47.4-166.7,1.9C24.7,192.6,23.9,118,69.4,71.4
			C114.9,24.8,189.6,24,236.1,69.5L236.1,69.5z"/>
		<path class="st4" d="M153.7,247.4c51.7,0,93.6-41.9,93.6-93.6c0-51.7-41.9-93.6-93.6-93.6c-51.7,0-93.6,41.9-93.6,93.6
			C60.2,205.5,102.1,247.4,153.7,247.4z"/>
		<path d="M97.7,151.2c0,0.6,0.3,1,1,1h2.9c1,0,1.8,0.2,2.3,0.7c0.5,0.5,0.7,1.3,0.7,2.3v0.8c0,1-0.2,1.8-0.7,2.3
			c-0.5,0.5-1.3,0.7-2.3,0.7c-0.3,0-0.7,0-1,0c-0.4,0-0.7,0-1.1,0c-0.4,0-0.7,0-1.1,0c-0.4,0-0.7,0-1,0c-0.8,0-1.6-0.1-2.3-0.2v-2.2
			c0.8,0,1.5,0.1,2.3,0.1c0.6,0,1.3,0.1,2,0.1c0.7,0,1.2,0,1.7,0c0.2,0,0.4-0.1,0.6-0.2c0.1-0.1,0.2-0.3,0.2-0.6v-1.4h-3.7
			c-1.1,0-1.9-0.2-2.4-0.8c-0.5-0.5-0.8-1.3-0.8-2.4v-0.5c0-1.1,0.3-1.9,0.8-2.4c0.5-0.5,1.3-0.8,2.4-0.8h5.6v2.2h-5
			c-0.6,0-1,0.3-1,1V151.2z M114.4,158.9h-2.9v-9h-3.4v-2.2h9.6v2.2h-3.4V158.9z M123.4,158.9h-3.1l4.2-11.2h3.2l4.2,11.2h-3.1
			l-0.7-2h-4L123.4,158.9z M124.9,154.8h2.6l-1.3-3.8L124.9,154.8z M136.5,147.7h6.7c1.1,0,1.9,0.3,2.4,0.8c0.5,0.5,0.8,1.3,0.8,2.4
			v1.4c0,0.9-0.1,1.6-0.4,2.1c-0.3,0.5-0.8,0.8-1.4,1l2,3.5h-3.1l-1.8-3.4h-2.2v3.4h-2.9V147.7z M143.5,150.9c0-0.6-0.3-1-1-1h-3.2
			v3.4h3.2c0.6,0,1-0.3,1-1V150.9z M157.1,158.9h-2.9v-9h-3.4v-2.2h9.6v2.2h-3.4V158.9z M173.7,147.7h6.4c1,0,1.8,0.2,2.3,0.7
			c0.5,0.5,0.7,1.2,0.7,2.2c0,0.6-0.1,1.2-0.4,1.6c-0.3,0.4-0.6,0.7-1,0.8c0.2,0.1,0.5,0.2,0.7,0.3c0.2,0.1,0.4,0.3,0.6,0.6
			c0.2,0.2,0.3,0.5,0.4,0.9c0.1,0.3,0.2,0.7,0.2,1.2c0,1-0.2,1.8-0.7,2.3c-0.5,0.5-1.3,0.7-2.3,0.7h-6.9V147.7z M180.8,155.3
			c0-0.6-0.3-1-1-1h-3.2v2.2h3.2c0.6,0,1-0.3,1-1V155.3z M180.3,150.9c0-0.6-0.3-1-1-1h-2.7v2.2h2.7c0.6,0,1-0.3,1-1V150.9z
			 M196,150.7c0-0.6-0.3-1-1-1h-2.7c-0.6,0-1,0.3-1,1v5.1c0,0.6,0.3,1,1,1h2.7c0.6,0,1-0.3,1-1V150.7z M198.8,155.8
			c0,1.1-0.3,1.9-0.8,2.4c-0.5,0.5-1.3,0.8-2.4,0.8h-4c-1.1,0-1.9-0.2-2.4-0.8c-0.5-0.5-0.8-1.3-0.8-2.4v-5.1c0-1.1,0.2-1.9,0.8-2.4
			c0.5-0.5,1.3-0.8,2.4-0.8h4c1.1,0,1.9,0.3,2.4,0.8c0.5,0.5,0.8,1.3,0.8,2.4V155.8z M209.6,158.9h-2.9v-9h-3.4v-2.2h9.6v2.2h-3.4
			V158.9z"/>
		<path d="M103.9,158.3l-0.1-0.1l0,0L103.9,158.3z M100.6,159l0,0.2l0,0L100.6,159z M99.5,159l0-0.2h0L99.5,159z M98.4,158.9l0-0.2
			h0L98.4,158.9z M97.3,158.9l0-0.2h0L97.3,158.9z M95,158.7h-0.2v0.2l0.2,0L95,158.7z M95,156.5l0-0.2l-0.2,0v0.2H95z M97.3,156.7
			l0,0.2h0L97.3,156.7z M99.2,156.7l0,0.2l0,0L99.2,156.7z M101.5,156.6l-0.1-0.1l0,0L101.5,156.6z M101.7,154.5h0.2v-0.2h-0.2
			V154.5z M95.6,153.8l-0.1,0.1l0,0L95.6,153.8z M95.6,148.4l0.1,0.1l0,0L95.6,148.4z M103.7,147.7h0.2v-0.2h-0.2V147.7z
			 M103.7,149.9v0.2h0.2v-0.2H103.7z M97.5,151.2c0,0.4,0.1,0.7,0.3,0.9s0.5,0.3,0.9,0.3v-0.4c-0.3,0-0.5-0.1-0.6-0.2
			c-0.1-0.1-0.2-0.3-0.2-0.6H97.5z M98.7,152.3h2.9v-0.4h-2.9V152.3z M101.6,152.3c1,0,1.7,0.2,2.2,0.7l0.3-0.3
			c-0.5-0.5-1.4-0.8-2.4-0.8V152.3z M103.7,153c0.4,0.4,0.7,1.1,0.7,2.2h0.4c0-1.1-0.3-1.9-0.8-2.4L103.7,153z M104.4,155.2v0.8h0.4
			v-0.8H104.4z M104.4,156c0,1-0.2,1.7-0.7,2.2l0.3,0.3c0.5-0.5,0.8-1.4,0.8-2.4H104.4z M103.7,158.1c-0.4,0.4-1.1,0.7-2.2,0.7v0.4
			c1.1,0,1.9-0.3,2.4-0.8L103.7,158.1z M101.6,158.8c-0.3,0-0.7,0-1,0l0,0.4c0.4,0,0.7,0,1,0V158.8z M100.6,158.8
			c-0.3,0-0.7,0-1.1,0l0,0.4c0.4,0,0.7,0,1.1,0L100.6,158.8z M99.5,158.8c-0.4,0-0.7,0-1.1,0l0,0.4c0.4,0,0.7,0,1.1,0L99.5,158.8z
			 M98.4,158.7c-0.4,0-0.7,0-1,0l0,0.4c0.3,0,0.7,0,1,0L98.4,158.7z M97.3,158.7c-0.8,0-1.5-0.1-2.3-0.2l0,0.4
			c0.8,0.1,1.5,0.1,2.3,0.2L97.3,158.7z M95.2,158.7v-2.2h-0.4v2.2H95.2z M95,156.7c0.8,0,1.5,0.1,2.3,0.1l0-0.4
			c-0.7,0-1.5-0.1-2.3-0.1L95,156.7z M97.3,156.9c0.6,0,1.3,0.1,2,0.1l0-0.4c-0.7,0-1.3,0-1.9-0.1L97.3,156.9z M99.2,156.9
			c0.7,0,1.2,0,1.7,0v-0.4c-0.5,0-1,0-1.7,0L99.2,156.9z M100.9,157c0.3,0,0.5-0.1,0.7-0.3l-0.3-0.3c-0.1,0.1-0.2,0.1-0.4,0.1V157z
			 M101.7,156.7c0.2-0.2,0.3-0.4,0.3-0.7h-0.4c0,0.2-0.1,0.3-0.2,0.5L101.7,156.7z M101.9,156v-1.4h-0.4v1.4H101.9z M101.7,154.3
			h-3.7v0.4h3.7V154.3z M98.1,154.3c-1.1,0-1.8-0.2-2.3-0.7l-0.3,0.3c0.6,0.6,1.4,0.8,2.6,0.8V154.3z M95.7,153.6
			c-0.4-0.5-0.7-1.2-0.7-2.3h-0.4c0,1.1,0.3,2,0.8,2.6L95.7,153.6z M95.1,151.3v-0.5h-0.4v0.5H95.1z M95.1,150.9
			c0-1.1,0.2-1.8,0.7-2.3l-0.3-0.3c-0.6,0.6-0.8,1.4-0.8,2.6H95.1z M95.7,148.6c0.5-0.5,1.2-0.7,2.3-0.7v-0.4c-1.1,0-2,0.3-2.6,0.8
			L95.7,148.6z M98.1,147.9h5.6v-0.4h-5.6V147.9z M103.5,147.7v2.2h0.4v-2.2H103.5z M103.7,149.7h-5v0.4h5V149.7z M98.7,149.7
			c-0.4,0-0.7,0.1-0.9,0.3s-0.3,0.5-0.3,0.9h0.4c0-0.3,0.1-0.5,0.2-0.6c0.1-0.1,0.3-0.2,0.6-0.2V149.7z M97.5,150.9v0.3h0.4v-0.3
			H97.5z M114.4,158.9v0.2h0.2v-0.2H114.4z M111.5,158.9h-0.2v0.2h0.2V158.9z M111.5,149.9h0.2v-0.2h-0.2V149.9z M108.1,149.9h-0.2
			v0.2h0.2V149.9z M108.1,147.7v-0.2h-0.2v0.2H108.1z M117.7,147.7h0.2v-0.2h-0.2V147.7z M117.7,149.9v0.2h0.2v-0.2H117.7z
			 M114.4,149.9v-0.2h-0.2v0.2H114.4z M114.4,158.7h-2.9v0.4h2.9V158.7z M111.7,158.9v-9h-0.4v9H111.7z M111.5,149.7h-3.4v0.4h3.4
			V149.7z M108.3,149.9v-2.2h-0.4v2.2H108.3z M108.1,147.9h9.6v-0.4h-9.6V147.9z M117.5,147.7v2.2h0.4v-2.2H117.5z M117.7,149.7
			h-3.4v0.4h3.4V149.7z M114.2,149.9v9h0.4v-9H114.2z M123.4,158.9v0.2h0.1l0-0.1L123.4,158.9z M120.3,158.9l-0.2-0.1l-0.1,0.3h0.3
			V158.9z M124.5,147.7v-0.2h-0.1l0,0.1L124.5,147.7z M127.7,147.7l0.2-0.1l0-0.1h-0.1V147.7z M132,158.9v0.2h0.3l-0.1-0.3
			L132,158.9z M128.9,158.9l-0.2,0.1l0,0.1h0.1V158.9z M128.1,156.9l0.2-0.1l0-0.1h-0.1V156.9z M124.1,156.9v-0.2H124l0,0.1
			L124.1,156.9z M124.9,154.8l-0.2-0.1l-0.1,0.3h0.3V154.8z M127.4,154.8v0.2h0.3l-0.1-0.3L127.4,154.8z M126.1,151l0.2-0.1
			l-0.2-0.6l-0.2,0.6L126.1,151z M123.4,158.7h-3.1v0.4h3.1V158.7z M120.5,158.9l4.2-11.2l-0.4-0.1l-4.2,11.2L120.5,158.9z
			 M124.5,147.9h3.2v-0.4h-3.2V147.9z M127.5,147.7l4.2,11.2l0.4-0.1l-4.2-11.2L127.5,147.7z M132,158.7h-3.1v0.4h3.1V158.7z
			 M129,158.8l-0.7-2l-0.4,0.1l0.7,2L129,158.8z M128.1,156.7h-4v0.4h4V156.7z M123.9,156.8l-0.7,2l0.4,0.1l0.7-2L123.9,156.8z
			 M124.9,155h2.6v-0.4h-2.6V155z M127.6,154.7l-1.3-3.8l-0.4,0.1l1.3,3.8L127.6,154.7z M125.9,151l-1.3,3.8l0.4,0.1l1.3-3.8
			L125.9,151z M136.5,147.7v-0.2h-0.2v0.2H136.5z M145.6,148.4l-0.1,0.1l0,0L145.6,148.4z M145.9,154.4l-0.2-0.1l0,0L145.9,154.4z
			 M144.5,155.3l0-0.2l-0.3,0.1l0.1,0.2L144.5,155.3z M146.5,158.9v0.2h0.3l-0.2-0.3L146.5,158.9z M143.4,158.9l-0.2,0.1l0.1,0.1
			h0.1V158.9z M141.6,155.5l0.2-0.1l-0.1-0.1h-0.1V155.5z M139.3,155.5v-0.2h-0.2v0.2H139.3z M139.3,158.9v0.2h0.2v-0.2H139.3z
			 M136.5,158.9h-0.2v0.2h0.2V158.9z M139.3,149.9v-0.2h-0.2v0.2H139.3z M139.3,153.3h-0.2v0.2h0.2V153.3z M136.5,147.9h6.7v-0.4
			h-6.7V147.9z M143.2,147.9c1.1,0,1.8,0.3,2.3,0.7l0.3-0.3c-0.6-0.6-1.4-0.8-2.6-0.8V147.9z M145.5,148.6c0.5,0.4,0.7,1.2,0.7,2.3
			h0.4c0-1.1-0.3-2-0.8-2.6L145.5,148.6z M146.2,150.9v1.4h0.4v-1.4H146.2z M146.2,152.3c0,0.9-0.1,1.5-0.4,2l0.3,0.2
			c0.3-0.5,0.5-1.3,0.5-2.2H146.2z M145.8,154.3c-0.3,0.4-0.7,0.7-1.3,0.9l0.1,0.4c0.7-0.2,1.2-0.5,1.5-1.1L145.8,154.3z
			 M144.4,155.4l2,3.5l0.3-0.2l-2-3.5L144.4,155.4z M146.5,158.7h-3.1v0.4h3.1V158.7z M143.6,158.8l-1.8-3.4l-0.4,0.2l1.8,3.4
			L143.6,158.8z M141.6,155.3h-2.2v0.4h2.2V155.3z M139.1,155.5v3.4h0.4v-3.4H139.1z M139.3,158.7h-2.9v0.4h2.9V158.7z M136.7,158.9
			v-11.2h-0.4v11.2H136.7z M143.7,150.9c0-0.3-0.1-0.6-0.3-0.9c-0.2-0.2-0.5-0.3-0.9-0.3v0.4c0.3,0,0.5,0.1,0.6,0.2
			c0.1,0.1,0.2,0.3,0.2,0.6H143.7z M142.5,149.7h-3.2v0.4h3.2V149.7z M139.1,149.9v3.4h0.4v-3.4H139.1z M139.3,153.5h3.2v-0.4h-3.2
			V153.5z M142.5,153.5c0.4,0,0.7-0.1,0.9-0.3c0.2-0.2,0.3-0.5,0.3-0.9h-0.4c0,0.3-0.1,0.5-0.2,0.6c-0.1,0.1-0.3,0.2-0.6,0.2V153.5z
			 M143.7,152.3v-1.4h-0.4v1.4H143.7z M157.1,158.9v0.2h0.2v-0.2H157.1z M154.2,158.9H154v0.2h0.2V158.9z M154.2,149.9h0.2v-0.2
			h-0.2V149.9z M150.8,149.9h-0.2v0.2h0.2V149.9z M150.8,147.7v-0.2h-0.2v0.2H150.8z M160.4,147.7h0.2v-0.2h-0.2V147.7z
			 M160.4,149.9v0.2h0.2v-0.2H160.4z M157.1,149.9v-0.2h-0.2v0.2H157.1z M157.1,158.7h-2.9v0.4h2.9V158.7z M154.4,158.9v-9H154v9
			H154.4z M154.2,149.7h-3.4v0.4h3.4V149.7z M151,149.9v-2.2h-0.4v2.2H151z M150.8,147.9h9.6v-0.4h-9.6V147.9z M160.2,147.7v2.2h0.4
			v-2.2H160.2z M160.4,149.7h-3.4v0.4h3.4V149.7z M156.9,149.9v9h0.4v-9H156.9z M173.7,147.7v-0.2h-0.2v0.2H173.7z M182.4,148.4
			l-0.1,0.1l0,0L182.4,148.4z M182.8,152.1l0.2,0.1l0,0L182.8,152.1z M181.7,152.9l-0.1-0.2l-0.6,0.2l0.6,0.2L181.7,152.9z
			 M182.4,153.2l-0.1,0.2l0,0L182.4,153.2z M183,153.8l-0.2,0.1l0,0L183,153.8z M183.5,154.7l-0.2,0.1l0,0L183.5,154.7z
			 M182.9,158.1l-0.1-0.1L182.9,158.1z M173.7,158.9h-0.2v0.2h0.2V158.9z M176.6,154.4v-0.2h-0.2v0.2H176.6z M176.6,156.6h-0.2v0.2
			h0.2V156.6z M176.6,149.9v-0.2h-0.2v0.2H176.6z M176.6,152.1h-0.2v0.2h0.2V152.1z M173.7,147.9h6.4v-0.4h-6.4V147.9z M180.1,147.9
			c1,0,1.7,0.2,2.2,0.7l0.3-0.3c-0.5-0.5-1.4-0.8-2.4-0.8V147.9z M182.3,148.5c0.4,0.4,0.7,1.1,0.7,2h0.4c0-1-0.3-1.8-0.8-2.3
			L182.3,148.5z M183,150.5c0,0.6-0.1,1.1-0.4,1.5l0.3,0.2c0.3-0.4,0.5-1,0.5-1.7H183z M182.6,152c-0.3,0.4-0.6,0.6-0.9,0.8l0.1,0.4
			c0.4-0.2,0.8-0.5,1.1-0.9L182.6,152z M181.7,153.1c0.2,0.1,0.4,0.2,0.7,0.3l0.2-0.3c-0.2-0.1-0.5-0.3-0.8-0.3L181.7,153.1z
			 M182.3,153.4c0.2,0.1,0.4,0.3,0.5,0.5l0.3-0.2c-0.2-0.3-0.4-0.5-0.7-0.6L182.3,153.4z M182.9,153.9c0.2,0.2,0.3,0.5,0.4,0.8
			l0.4-0.1c-0.1-0.4-0.3-0.7-0.5-0.9L182.9,153.9z M183.3,154.7c0.1,0.3,0.2,0.7,0.2,1.1h0.4c0-0.5-0.1-0.9-0.2-1.2L183.3,154.7z
			 M183.4,155.8c0,1-0.2,1.7-0.7,2.2l0.3,0.3c0.5-0.5,0.8-1.4,0.8-2.4H183.4z M182.8,158c-0.4,0.4-1.1,0.7-2.2,0.7v0.4
			c1.1,0,1.9-0.3,2.4-0.8L182.8,158z M180.6,158.7h-6.9v0.4h6.9V158.7z M173.9,158.9v-11.2h-0.4v11.2H173.9z M181,155.3
			c0-0.4-0.1-0.7-0.3-0.9c-0.2-0.2-0.5-0.3-0.9-0.3v0.4c0.3,0,0.5,0.1,0.6,0.2c0.1,0.1,0.2,0.3,0.2,0.6H181z M179.8,154.2h-3.2v0.4
			h3.2V154.2z M176.4,154.4v2.2h0.4v-2.2H176.4z M176.6,156.8h3.2v-0.4h-3.2V156.8z M179.8,156.8c0.4,0,0.7-0.1,0.9-0.3
			c0.2-0.2,0.3-0.5,0.3-0.9h-0.4c0,0.3-0.1,0.5-0.2,0.6c-0.1,0.1-0.3,0.2-0.6,0.2V156.8z M181,155.7v-0.3h-0.4v0.3H181z
			 M180.5,150.9c0-0.3-0.1-0.6-0.3-0.9c-0.2-0.2-0.5-0.3-0.9-0.3v0.4c0.3,0,0.5,0.1,0.6,0.2c0.1,0.1,0.2,0.3,0.2,0.6H180.5z
			 M179.3,149.7h-2.7v0.4h2.7V149.7z M176.4,149.9v2.2h0.4v-2.2H176.4z M176.6,152.3h2.7v-0.4h-2.7V152.3z M179.3,152.3
			c0.4,0,0.7-0.1,0.9-0.3c0.2-0.2,0.3-0.5,0.3-0.9h-0.4c0,0.3-0.1,0.5-0.2,0.6c-0.1,0.1-0.3,0.2-0.6,0.2V152.3z M180.5,151.2v-0.3
			h-0.4v0.3H180.5z M198.1,158.3l-0.1-0.1l0,0L198.1,158.3z M189.2,158.3l-0.1,0.1l0,0L189.2,158.3z M189.2,148.3l-0.1-0.1l0,0
			L189.2,148.3z M198.1,148.3l-0.1,0.1l0,0L198.1,148.3z M196.2,150.7c0-0.4-0.1-0.7-0.3-0.9s-0.5-0.3-0.9-0.3v0.4
			c0.3,0,0.5,0.1,0.6,0.2c0.1,0.1,0.2,0.3,0.2,0.6H196.2z M195,149.5h-2.7v0.4h2.7V149.5z M192.3,149.5c-0.4,0-0.7,0.1-0.9,0.3
			s-0.3,0.5-0.3,0.9h0.4c0-0.3,0.1-0.5,0.2-0.6c0.1-0.1,0.3-0.2,0.6-0.2V149.5z M191.1,150.7v5.1h0.4v-5.1H191.1z M191.1,155.8
			c0,0.4,0.1,0.7,0.3,0.9s0.5,0.3,0.9,0.3v-0.4c-0.3,0-0.5-0.1-0.6-0.2c-0.1-0.1-0.2-0.3-0.2-0.6H191.1z M192.3,157h2.7v-0.4h-2.7
			V157z M195,157c0.3,0,0.6-0.1,0.9-0.3s0.3-0.5,0.3-0.9h-0.4c0,0.3-0.1,0.5-0.2,0.6c-0.1,0.1-0.3,0.2-0.6,0.2V157z M196.2,155.8
			v-5.1h-0.4v5.1H196.2z M198.6,155.8c0,1.1-0.3,1.8-0.7,2.3l0.3,0.3c0.6-0.6,0.8-1.4,0.8-2.6H198.6z M197.9,158.1
			c-0.4,0.4-1.2,0.7-2.3,0.7v0.4c1.1,0,2-0.3,2.6-0.8L197.9,158.1z M195.6,158.8h-4v0.4h4V158.8z M191.6,158.8
			c-1.1,0-1.9-0.2-2.3-0.7l-0.3,0.3c0.6,0.6,1.4,0.8,2.6,0.8V158.8z M189.3,158.1c-0.4-0.5-0.7-1.2-0.7-2.3h-0.4
			c0,1.1,0.3,2,0.8,2.6L189.3,158.1z M188.6,155.8v-5.1h-0.4v5.1H188.6z M188.6,150.7c0-1.1,0.2-1.8,0.7-2.3l-0.3-0.3
			c-0.6,0.6-0.8,1.4-0.8,2.6H188.6z M189.3,148.4c0.5-0.5,1.2-0.7,2.3-0.7v-0.4c-1.1,0-2,0.3-2.6,0.8L189.3,148.4z M191.6,147.7h4
			v-0.4h-4V147.7z M195.6,147.7c1.1,0,1.8,0.3,2.3,0.7l0.3-0.3c-0.6-0.6-1.4-0.8-2.6-0.8V147.7z M197.9,148.4
			c0.5,0.4,0.7,1.2,0.7,2.3h0.4c0-1.1-0.3-2-0.8-2.6L197.9,148.4z M198.6,150.7v5.1h0.4v-5.1H198.6z M209.6,158.9v0.2h0.2v-0.2
			H209.6z M206.7,158.9h-0.2v0.2h0.2V158.9z M206.7,149.9h0.2v-0.2h-0.2V149.9z M203.3,149.9h-0.2v0.2h0.2V149.9z M203.3,147.7v-0.2
			h-0.2v0.2H203.3z M212.9,147.7h0.2v-0.2h-0.2V147.7z M212.9,149.9v0.2h0.2v-0.2H212.9z M209.6,149.9v-0.2h-0.2v0.2H209.6z
			 M209.6,158.7h-2.9v0.4h2.9V158.7z M206.9,158.9v-9h-0.4v9H206.9z M206.7,149.7h-3.4v0.4h3.4V149.7z M203.5,149.9v-2.2h-0.4v2.2
			H203.5z M203.3,147.9h9.6v-0.4h-9.6V147.9z M212.7,147.7v2.2h0.4v-2.2H212.7z M212.9,149.7h-3.4v0.4h3.4V149.7z M209.4,149.9v9
			h0.4v-9H209.4z"/>
	</g>
	<g>
		<path class="st5" d="M285.5,22.3c20.6,20.1,21,53.1,0.8,73.7c-20.1,20.6-53.1,21-73.7,0.8c-20.6-20.1-21-53.1-0.8-73.7
			C232,2.5,265,2.2,285.5,22.3z"/>
		<path class="st6" d="M249.1,111.6c28.8,0,52.1-23.3,52.1-52.1c0-28.8-23.3-52.1-52.1-52.1c-28.8,0-52.1,23.3-52.1,52.1
			C197,88.3,220.4,111.6,249.1,111.6z"/>
		<path class="st7" d="M249.1,100.9c22.8,0,41.3-18.5,41.3-41.3c0-22.8-18.5-41.3-41.3-41.3s-41.3,18.5-41.3,41.3
			C207.8,82.4,226.3,100.9,249.1,100.9z"/>
		<path class="st8" d="M249.1,100.2c-8,0-15.3-2.4-20.5-5.1c-2.6-1.4-4.7-2.8-6.1-4c-0.7-0.6-1.3-1.2-1.6-1.7
			c-0.4-0.5-0.5-0.8-0.5-0.9v-3.9c0-3.1,2.5-5.6,5.5-5.6h46.4c3.1,0,5.5,2.5,5.5,5.6v3.9c0,0.1-0.1,0.5-0.5,0.9
			c-0.4,0.5-0.9,1-1.6,1.7c-1.4,1.2-3.5,2.7-6.1,4C264.4,97.8,257.2,100.2,249.1,100.2z"/>
		<path class="st9" d="M256.4,74.8c-2,1.9-12.5,1.9-14.5,0"/>
		<path class="st8" d="M249.1,81.8c-1.8,0-3.6-0.2-4.9-0.7c-1.4-0.5-2.1-1.2-2.1-2v-6.9h14v6.9c0,0.8-0.7,1.5-2.1,2
			C252.7,81.6,250.9,81.8,249.1,81.8z"/>
		<path class="st10" d="M249.1,75.6c7.1,0,12.8-2.8,12.8-6.1c0-3.4-5.7-6.1-12.8-6.1c-7.1,0-12.8,2.8-12.8,6.1
			C236.3,72.9,242.1,75.6,249.1,75.6z"/>
		<path class="st10" d="M249.1,63.4c-7.1,0-12.8,2.8-12.8,6.1c0,1.6,1.3,3.1,3.4,4.2c1-0.2,2-0.5,2.8-1l1.8-1c2.9-1.6,6.5-1.6,9.4,0
			l1.9,1c0.9,0.5,1.9,0.8,2.9,1c2.1-1.1,3.4-2.6,3.4-4.2C262,66.1,256.2,63.4,249.1,63.4L249.1,63.4z"/>
		<path class="st8" d="M249.1,76c-3.6,0-6.8-0.7-9.2-1.9c-2.4-1.2-3.6-2.8-3.6-4.4c0-1.6,1.3-3.2,3.6-4.4c2.3-1.2,5.6-1.9,9.2-1.9
			c3.6,0,6.8,0.7,9.2,1.9c2.4,1.2,3.6,2.8,3.6,4.4c0,1.6-1.3,3.2-3.6,4.4C256,75.3,252.7,76,249.1,76z"/>
		<path class="st8" d="M272.3,70.4H260c-1.4,0-2.8-0.4-4-1.2l-3-2c-2.4-1.6-5.5-1.6-7.9,0l-3,2c-1.2,0.8-2.6,1.2-4,1.2h-12.3
			c-3.2,0-5.8-2.6-5.8-5.8V42.8c0-3.2,2.6-5.8,5.8-5.8h46.4c3.2,0,5.8,2.6,5.8,5.8v21.8C278.1,67.8,275.5,70.5,272.3,70.4
			L272.3,70.4z"/>
		<path class="st11" d="M234.7,63.2c5.6,0,10.1-4.6,10.1-10.2s-4.5-10.2-10.1-10.2c-5.6,0-10.1,4.6-10.1,10.2S229.1,63.2,234.7,63.2
			z"/>
		<path class="st12" d="M234.7,60.3c4,0,7.3-3.3,7.3-7.3c0-4-3.2-7.3-7.3-7.3c-4,0-7.3,3.3-7.3,7.3C227.4,57,230.7,60.3,234.7,60.3z
			"/>
		<path d="M234.7,58.1c2.8,0,5.1-2.3,5.1-5.1s-2.3-5.1-5.1-5.1c-2.8,0-5.1,2.3-5.1,5.1S231.9,58.1,234.7,58.1z"/>
		<path class="st13" d="M233.1,52.9c0.8,0,1.4-0.7,1.4-1.5c0-0.8-0.6-1.5-1.4-1.5c-0.8,0-1.5,0.7-1.5,1.5
			C231.7,52.2,232.3,52.9,233.1,52.9z"/>
		<path class="st11" d="M263.6,63.2c5.6,0,10.1-4.6,10.1-10.2s-4.5-10.2-10.1-10.2s-10.1,4.6-10.1,10.2S258,63.2,263.6,63.2z"/>
		<path class="st12" d="M263.6,60.3c4,0,7.3-3.3,7.3-7.3c0-4-3.2-7.3-7.3-7.3s-7.3,3.3-7.3,7.3C256.4,57,259.6,60.3,263.6,60.3z"/>
		<path d="M263.6,58.1c2.8,0,5.1-2.3,5.1-5.1s-2.3-5.1-5.1-5.1c-2.8,0-5.1,2.3-5.1,5.1S260.8,58.1,263.6,58.1z"/>
		<path class="st13" d="M262.1,52.9c0.8,0,1.5-0.7,1.5-1.5c0-0.8-0.7-1.5-1.5-1.5s-1.4,0.7-1.4,1.5
			C260.6,52.2,261.3,52.9,262.1,52.9z"/>
		<path class="st12" d="M249.1,32.6V37"/>
		<path class="st12" d="M246.2,71.9h5.8"/>
		<path class="st8" d="M249.1,32.4h-0.3c-2.1-0.1-3.8-1.9-3.8-4.1c0-2.3,1.8-4.1,4.1-4.1c2.2,0,4.1,1.8,4.1,4.1
			C253.2,30.5,251.4,32.4,249.1,32.4z"/>
		<path d="M249.1,23.9c2.4,0,4.4,2,4.4,4.4c0,2.4-1.9,4.4-4.4,4.4c-2.4,0-4.4-2-4.4-4.4C244.8,25.8,246.7,23.9,249.1,23.9
			 M249.1,23.4c-2.7,0-4.8,2.2-4.8,4.8s2.2,4.8,4.8,4.8c2.7,0,4.8-2.2,4.8-4.8S251.8,23.4,249.1,23.4L249.1,23.4z"/>
		<defs>
			<filter id="Adobe_OpacityMaskFilter" filterUnits="userSpaceOnUse" x="243.3" y="22.4" width="11.7" height="11.7">
				<feColorMatrix  type="matrix" values="1 0 0 0 0  0 1 0 0 0  0 0 1 0 0  0 0 0 1 0"/>
			</filter>
		</defs>
		
			<mask maskUnits="userSpaceOnUse" x="243.3" y="22.4" width="11.7" height="11.7" id="path-31-inside-1_148_4575_00000122716650140932085950000001249206571237901707_">
			<path class="st14" d="M249.1,23.9c2.4,0,4.4,2,4.4,4.4c0,2.4-1.9,4.4-4.4,4.4c-2.4,0-4.4-2-4.4-4.4
				C244.8,25.8,246.7,23.9,249.1,23.9 M249.1,23.4c-2.7,0-4.8,2.2-4.8,4.8s2.2,4.8,4.8,4.8c2.7,0,4.8-2.2,4.8-4.8
				S251.8,23.4,249.1,23.4L249.1,23.4z"/>
		</mask>
		<path class="st15" d="M249.1,23.4h1v-1h-1V23.4z M249.1,23.4h-1v1h1V23.4z M249.1,24.9c1.8,0,3.4,1.5,3.4,3.4h2
			c0-3-2.4-5.4-5.4-5.4V24.9z M252.5,28.3c0,1.9-1.5,3.4-3.4,3.4v2c3,0,5.4-2.4,5.4-5.4H252.5z M249.1,31.6c-1.8,0-3.4-1.5-3.4-3.4
			h-2c0,3,2.4,5.4,5.4,5.4V31.6z M245.8,28.3c0-1.9,1.5-3.4,3.4-3.4v-2c-3,0-5.4,2.4-5.4,5.4H245.8z M249.1,22.4
			c-3.2,0-5.8,2.6-5.8,5.8h2c0-2.1,1.7-3.8,3.8-3.8V22.4z M243.3,28.2c0,3.2,2.6,5.8,5.8,5.8v-2c-2.1,0-3.8-1.7-3.8-3.8H243.3z
			 M249.1,34.1c3.2,0,5.8-2.6,5.8-5.8h-2c0,2.1-1.7,3.8-3.8,3.8V34.1z M255,28.2c0-3.2-2.6-5.8-5.8-5.8v2c2.1,0,3.8,1.7,3.8,3.8H255
			z M250.1,23.4L250.1,23.4h-2l0,0H250.1z"/>
	</g>
</g>
</svg>
