<?xml version="1.0" encoding="utf-8"?>
<!-- Generator: Adobe Illustrator 26.2.1, SVG Export Plug-In . SVG Version: 6.00 Build 0)  -->
<svg version="1.1" id="Layer_1" xmlns="http://www.w3.org/2000/svg" xmlns:xlink="http://www.w3.org/1999/xlink" x="0px" y="0px"
	 viewBox="0 0 308 308" style="enable-background:new 0 0 308 308;" xml:space="preserve">
<style type="text/css">
	.st0{stroke:#00FE00;stroke-width:0.5;stroke-miterlimit:10;}
	.st1{fill:none;stroke:#00FE00;stroke-width:0.54;stroke-miterlimit:10;}
	.st2{stroke:#00FE00;stroke-miterlimit:10;stroke-dasharray:4,4;}
	.st3{fill:none;stroke:#00FE00;stroke-width:3;stroke-miterlimit:10;}
	.st4{fill:#00FE00;}
	.st5{stroke:#00FE00;stroke-width:3;stroke-miterlimit:10;}
	.st6{fill:none;stroke:#00FE00;stroke-width:0.54;stroke-miterlimit:10;stroke-dasharray:4,4;}
	.st7{fill:none;stroke:#00FE00;stroke-width:0.5;stroke-miterlimit:10;}
	.st8{stroke:#FFFFFF;}
	.st9{fill:none;stroke:#5E6369;stroke-linejoin:round;}
	.st10{fill:#575756;}
	.st11{stroke:#00FE00;stroke-miterlimit:10;}
	.st12{fill:none;stroke:#FFFFFF;stroke-miterlimit:10;}
	.st13{fill:#FFFFFF;}
	.st14{fill:#FFFFFF;filter:url(#Adobe_OpacityMaskFilter);}
	.st15{mask:url(#path-31-inside-1_148_4576_00000135657710230261954190000009598144247231267251_);fill:#FFFFFF;}
</style>
<g>
	<g>
		<path class="st0" d="M154.3,255.6c56.2,0,101.7-45.5,101.7-101.7c0-56.2-45.5-101.7-101.7-101.7c-56.2,0-101.7,45.5-101.7,101.7
			C52.6,210,98.2,255.6,154.3,255.6z"/>
		<path class="st1" d="M154.3,271.8c65.1,0,117.9-52.8,117.9-117.9c0-65.1-52.8-117.9-117.9-117.9c-65.1,0-117.9,52.8-117.9,117.9
			C36.4,219,89.2,271.8,154.3,271.8z"/>
		<path class="st2" d="M239.4,281.1c70.3-46.9,89.2-142,42.3-212.3c-46.9-70.3-142-89.3-212.3-42.3c-70.3,46.9-89.3,142-42.3,212.3
			C74,309.1,169.1,328.1,239.4,281.1z"/>
		<path class="st3" d="M236.7,69.5c46.6,45.5,47.4,120.2,1.9,166.7c-45.5,46.6-120.2,47.4-166.7,1.9C25.3,192.6,24.5,118,70,71.4
			C115.5,24.8,190.2,24,236.7,69.5L236.7,69.5z"/>
		<path class="st0" d="M154.3,247.4c51.7,0,93.6-41.9,93.6-93.6c0-51.7-41.9-93.6-93.6-93.6s-93.6,41.9-93.6,93.6
			C60.8,205.5,102.7,247.4,154.3,247.4z"/>
		<path class="st4" d="M98.3,151.2c0,0.6,0.3,1,1,1h2.9c1,0,1.8,0.2,2.3,0.7c0.5,0.5,0.7,1.3,0.7,2.3v0.8c0,1-0.2,1.8-0.7,2.3
			c-0.5,0.5-1.3,0.7-2.3,0.7c-0.3,0-0.7,0-1,0c-0.4,0-0.7,0-1.1,0c-0.4,0-0.7,0-1.1,0c-0.4,0-0.7,0-1,0c-0.8,0-1.6-0.1-2.3-0.2v-2.2
			c0.8,0,1.5,0.1,2.3,0.1c0.6,0,1.3,0.1,2,0.1c0.7,0,1.2,0,1.7,0c0.2,0,0.4-0.1,0.6-0.2c0.1-0.1,0.2-0.3,0.2-0.6v-1.4h-3.7
			c-1.1,0-1.9-0.2-2.4-0.8c-0.5-0.5-0.8-1.3-0.8-2.4v-0.5c0-1.1,0.3-1.9,0.8-2.4c0.5-0.5,1.3-0.8,2.4-0.8h5.6v2.2h-5
			c-0.6,0-1,0.3-1,1V151.2z M115,158.9h-2.9v-9h-3.4v-2.2h9.6v2.2H115V158.9z M124,158.9h-3.1l4.2-11.2h3.2l4.2,11.2h-3.1l-0.7-2h-4
			L124,158.9z M125.5,154.8h2.6l-1.3-3.8L125.5,154.8z M137.1,147.7h6.7c1.1,0,1.9,0.3,2.4,0.8c0.5,0.5,0.8,1.3,0.8,2.4v1.4
			c0,0.9-0.1,1.6-0.4,2.1c-0.3,0.5-0.8,0.8-1.4,1l2,3.5H144l-1.8-3.4h-2.2v3.4h-2.9V147.7z M144.1,150.9c0-0.6-0.3-1-1-1h-3.2v3.4
			h3.2c0.6,0,1-0.3,1-1V150.9z M157.7,158.9h-2.9v-9h-3.4v-2.2h9.6v2.2h-3.4V158.9z M174.3,147.7h6.4c1,0,1.8,0.2,2.3,0.7
			c0.5,0.5,0.7,1.2,0.7,2.2c0,0.6-0.1,1.2-0.4,1.6c-0.3,0.4-0.6,0.7-1,0.8c0.2,0.1,0.5,0.2,0.7,0.3c0.2,0.1,0.4,0.3,0.6,0.6
			c0.2,0.2,0.3,0.5,0.4,0.9c0.1,0.3,0.2,0.7,0.2,1.2c0,1-0.2,1.8-0.7,2.3c-0.5,0.5-1.3,0.7-2.3,0.7h-6.9V147.7z M181.4,155.3
			c0-0.6-0.3-1-1-1h-3.2v2.2h3.2c0.6,0,1-0.3,1-1V155.3z M180.9,150.9c0-0.6-0.3-1-1-1h-2.7v2.2h2.7c0.6,0,1-0.3,1-1V150.9z
			 M196.6,150.7c0-0.6-0.3-1-1-1h-2.7c-0.6,0-1,0.3-1,1v5.1c0,0.6,0.3,1,1,1h2.7c0.6,0,1-0.3,1-1V150.7z M199.5,155.8
			c0,1.1-0.3,1.9-0.8,2.4c-0.5,0.5-1.3,0.8-2.4,0.8h-4c-1.1,0-1.9-0.2-2.4-0.8c-0.5-0.5-0.8-1.3-0.8-2.4v-5.1c0-1.1,0.3-1.9,0.8-2.4
			c0.5-0.5,1.3-0.8,2.4-0.8h4c1.1,0,1.9,0.3,2.4,0.8c0.5,0.5,0.8,1.3,0.8,2.4V155.8z M210.2,158.9h-2.9v-9h-3.4v-2.2h9.6v2.2h-3.4
			V158.9z"/>
		<path class="st4" d="M104.5,158.3l-0.1-0.1l0,0L104.5,158.3z M101.2,159l0,0.2h0L101.2,159z M100.1,159l0-0.2h0L100.1,159z
			 M99,158.9l0-0.2h0L99,158.9z M97.9,158.9l0-0.2h0L97.9,158.9z M95.6,158.7h-0.2v0.2l0.2,0L95.6,158.7z M95.6,156.5l0-0.2l-0.2,0
			v0.2H95.6z M97.9,156.7l0,0.2h0L97.9,156.7z M99.8,156.7l0,0.2l0,0L99.8,156.7z M102.1,156.6l-0.1-0.1l0,0L102.1,156.6z
			 M102.3,154.5h0.2v-0.2h-0.2V154.5z M96.2,153.8l-0.1,0.1l0,0L96.2,153.8z M96.2,148.4l0.1,0.1l0,0L96.2,148.4z M104.3,147.7h0.2
			v-0.2h-0.2V147.7z M104.3,149.9v0.2h0.2v-0.2H104.3z M98.1,151.2c0,0.4,0.1,0.7,0.3,0.9c0.2,0.2,0.5,0.3,0.9,0.3v-0.4
			c-0.3,0-0.5-0.1-0.6-0.2c-0.1-0.1-0.2-0.3-0.2-0.6H98.1z M99.3,152.3h2.9v-0.4h-2.9V152.3z M102.2,152.3c1,0,1.7,0.2,2.2,0.7
			l0.3-0.3c-0.5-0.5-1.4-0.8-2.4-0.8V152.3z M104.3,153c0.4,0.4,0.7,1.1,0.7,2.2h0.4c0-1.1-0.3-1.9-0.8-2.4L104.3,153z M105,155.2
			v0.8h0.4v-0.8H105z M105,156c0,1-0.2,1.7-0.7,2.2l0.3,0.3c0.5-0.5,0.8-1.4,0.8-2.4H105z M104.3,158.1c-0.4,0.4-1.1,0.7-2.2,0.7
			v0.4c1.1,0,1.9-0.3,2.4-0.8L104.3,158.1z M102.2,158.8c-0.3,0-0.7,0-1,0l0,0.4c0.4,0,0.7,0,1,0V158.8z M101.2,158.8
			c-0.4,0-0.7,0-1.1,0l0,0.4c0.4,0,0.7,0,1.1,0L101.2,158.8z M100.1,158.8c-0.4,0-0.7,0-1.1,0l0,0.4c0.4,0,0.7,0,1.1,0L100.1,158.8z
			 M99,158.7c-0.4,0-0.7,0-1,0l0,0.4c0.3,0,0.7,0,1,0L99,158.7z M97.9,158.7c-0.8,0-1.5-0.1-2.3-0.2l0,0.4c0.8,0.1,1.5,0.1,2.3,0.2
			L97.9,158.7z M95.8,158.7v-2.2h-0.4v2.2H95.8z M95.6,156.7c0.8,0,1.5,0.1,2.3,0.1l0-0.4c-0.7,0-1.5-0.1-2.3-0.1L95.6,156.7z
			 M97.9,156.9c0.6,0,1.3,0.1,2,0.1l0-0.4c-0.7,0-1.3,0-1.9-0.1L97.9,156.9z M99.8,156.9c0.7,0,1.2,0,1.7,0v-0.4c-0.5,0-1,0-1.7,0
			L99.8,156.9z M101.5,157c0.3,0,0.5-0.1,0.7-0.3l-0.3-0.3c-0.1,0.1-0.2,0.1-0.4,0.1V157z M102.3,156.7c0.2-0.2,0.3-0.4,0.3-0.7
			h-0.4c0,0.2-0.1,0.3-0.2,0.5L102.3,156.7z M102.5,156v-1.4h-0.4v1.4H102.5z M102.3,154.3h-3.7v0.4h3.7V154.3z M98.7,154.3
			c-1.1,0-1.8-0.2-2.3-0.7l-0.3,0.3c0.6,0.6,1.4,0.8,2.6,0.8V154.3z M96.4,153.6c-0.4-0.5-0.7-1.2-0.7-2.3h-0.4c0,1.1,0.3,2,0.8,2.6
			L96.4,153.6z M95.7,151.3v-0.5h-0.4v0.5H95.7z M95.7,150.9c0-1.1,0.2-1.8,0.7-2.3l-0.3-0.3c-0.6,0.6-0.8,1.4-0.8,2.6H95.7z
			 M96.4,148.6c0.5-0.5,1.2-0.7,2.3-0.7v-0.4c-1.1,0-2,0.3-2.6,0.8L96.4,148.6z M98.7,147.9h5.6v-0.4h-5.6V147.9z M104.1,147.7v2.2
			h0.4v-2.2H104.1z M104.3,149.7h-5v0.4h5V149.7z M99.3,149.7c-0.4,0-0.7,0.1-0.9,0.3c-0.2,0.2-0.3,0.5-0.3,0.9h0.4
			c0-0.3,0.1-0.5,0.2-0.6c0.1-0.1,0.3-0.2,0.6-0.2V149.7z M98.1,150.9v0.3h0.4v-0.3H98.1z M115,158.9v0.2h0.2v-0.2H115z
			 M112.1,158.9h-0.2v0.2h0.2V158.9z M112.1,149.9h0.2v-0.2h-0.2V149.9z M108.7,149.9h-0.2v0.2h0.2V149.9z M108.7,147.7v-0.2h-0.2
			v0.2H108.7z M118.3,147.7h0.2v-0.2h-0.2V147.7z M118.3,149.9v0.2h0.2v-0.2H118.3z M115,149.9v-0.2h-0.2v0.2H115z M115,158.7h-2.9
			v0.4h2.9V158.7z M112.3,158.9v-9h-0.4v9H112.3z M112.1,149.7h-3.4v0.4h3.4V149.7z M108.9,149.9v-2.2h-0.4v2.2H108.9z M108.7,147.9
			h9.6v-0.4h-9.6V147.9z M118.1,147.7v2.2h0.4v-2.2H118.1z M118.3,149.7H115v0.4h3.4V149.7z M114.8,149.9v9h0.4v-9H114.8z
			 M124,158.9v0.2h0.1l0-0.1L124,158.9z M120.9,158.9l-0.2-0.1l-0.1,0.3h0.3V158.9z M125.1,147.7v-0.2H125l0,0.1L125.1,147.7z
			 M128.3,147.7l0.2-0.1l0-0.1h-0.1V147.7z M132.6,158.9v0.2h0.3l-0.1-0.3L132.6,158.9z M129.5,158.9l-0.2,0.1l0,0.1h0.1V158.9z
			 M128.7,156.9l0.2-0.1l0-0.1h-0.1V156.9z M124.7,156.9v-0.2h-0.1l0,0.1L124.7,156.9z M125.5,154.8l-0.2-0.1l-0.1,0.3h0.3V154.8z
			 M128,154.8v0.2h0.3l-0.1-0.3L128,154.8z M126.7,151l0.2-0.1l-0.2-0.6l-0.2,0.6L126.7,151z M124,158.7h-3.1v0.4h3.1V158.7z
			 M121.1,158.9l4.2-11.2l-0.4-0.1l-4.2,11.2L121.1,158.9z M125.1,147.9h3.2v-0.4h-3.2V147.9z M128.2,147.7l4.2,11.2l0.4-0.1
			l-4.2-11.2L128.2,147.7z M132.6,158.7h-3.1v0.4h3.1V158.7z M129.6,158.8l-0.7-2l-0.4,0.1l0.7,2L129.6,158.8z M128.7,156.7h-4v0.4
			h4V156.7z M124.6,156.8l-0.7,2l0.4,0.1l0.7-2L124.6,156.8z M125.5,155h2.6v-0.4h-2.6V155z M128.2,154.7l-1.3-3.8l-0.4,0.1l1.3,3.8
			L128.2,154.7z M126.6,151l-1.3,3.8l0.4,0.1l1.3-3.8L126.6,151z M137.1,147.7v-0.2h-0.2v0.2H137.1z M146.2,148.4l-0.1,0.1l0,0
			L146.2,148.4z M146.5,154.4l-0.2-0.1l0,0L146.5,154.4z M145.1,155.3l0-0.2l-0.3,0.1l0.1,0.2L145.1,155.3z M147.1,158.9v0.2h0.3
			l-0.2-0.3L147.1,158.9z M144,158.9l-0.2,0.1l0.1,0.1h0.1V158.9z M142.2,155.5l0.2-0.1l-0.1-0.1h-0.1V155.5z M139.9,155.5v-0.2
			h-0.2v0.2H139.9z M139.9,158.9v0.2h0.2v-0.2H139.9z M137.1,158.9h-0.2v0.2h0.2V158.9z M139.9,149.9v-0.2h-0.2v0.2H139.9z
			 M139.9,153.3h-0.2v0.2h0.2V153.3z M137.1,147.9h6.7v-0.4h-6.7V147.9z M143.8,147.9c1.1,0,1.8,0.3,2.3,0.7l0.3-0.3
			c-0.6-0.6-1.4-0.8-2.6-0.8V147.9z M146.1,148.6c0.5,0.4,0.7,1.2,0.7,2.3h0.4c0-1.1-0.3-2-0.8-2.6L146.1,148.6z M146.8,150.9v1.4
			h0.4v-1.4H146.8z M146.8,152.3c0,0.9-0.1,1.5-0.4,2l0.3,0.2c0.3-0.5,0.5-1.3,0.5-2.2H146.8z M146.4,154.3
			c-0.3,0.4-0.7,0.7-1.3,0.9l0.1,0.4c0.7-0.2,1.2-0.5,1.5-1.1L146.4,154.3z M145,155.4l2,3.5l0.3-0.2l-2-3.5L145,155.4z
			 M147.1,158.7H144v0.4h3.1V158.7z M144.2,158.8l-1.8-3.4l-0.4,0.2l1.8,3.4L144.2,158.8z M142.2,155.3h-2.2v0.4h2.2V155.3z
			 M139.7,155.5v3.4h0.4v-3.4H139.7z M139.9,158.7h-2.9v0.4h2.9V158.7z M137.3,158.9v-11.2h-0.4v11.2H137.3z M144.3,150.9
			c0-0.3-0.1-0.6-0.3-0.9c-0.2-0.2-0.5-0.3-0.9-0.3v0.4c0.3,0,0.5,0.1,0.6,0.2c0.1,0.1,0.2,0.3,0.2,0.6H144.3z M143.1,149.7h-3.2
			v0.4h3.2V149.7z M139.7,149.9v3.4h0.4v-3.4H139.7z M139.9,153.5h3.2v-0.4h-3.2V153.5z M143.1,153.5c0.4,0,0.6-0.1,0.9-0.3
			c0.2-0.2,0.3-0.5,0.3-0.9h-0.4c0,0.3-0.1,0.5-0.2,0.6c-0.1,0.1-0.3,0.2-0.6,0.2V153.5z M144.3,152.3v-1.4h-0.4v1.4H144.3z
			 M157.7,158.9v0.2h0.2v-0.2H157.7z M154.8,158.9h-0.2v0.2h0.2V158.9z M154.8,149.9h0.2v-0.2h-0.2V149.9z M151.5,149.9h-0.2v0.2
			h0.2V149.9z M151.5,147.7v-0.2h-0.2v0.2H151.5z M161.1,147.7h0.2v-0.2h-0.2V147.7z M161.1,149.9v0.2h0.2v-0.2H161.1z M157.7,149.9
			v-0.2h-0.2v0.2H157.7z M157.7,158.7h-2.9v0.4h2.9V158.7z M155,158.9v-9h-0.4v9H155z M154.8,149.7h-3.4v0.4h3.4V149.7z
			 M151.7,149.9v-2.2h-0.4v2.2H151.7z M151.5,147.9h9.6v-0.4h-9.6V147.9z M160.9,147.7v2.2h0.4v-2.2H160.9z M161.1,149.7h-3.4v0.4
			h3.4V149.7z M157.5,149.9v9h0.4v-9H157.5z M174.3,147.7v-0.2h-0.2v0.2H174.3z M183,148.4l-0.1,0.1l0,0L183,148.4z M183.4,152.1
			l0.2,0.1l0,0L183.4,152.1z M182.3,152.9l-0.1-0.2l-0.6,0.2l0.6,0.2L182.3,152.9z M183,153.2l-0.1,0.2l0,0L183,153.2z M183.6,153.8
			l-0.2,0.1l0,0L183.6,153.8z M184.1,154.7l-0.2,0.1l0,0L184.1,154.7z M183.5,158.1l-0.1-0.1L183.5,158.1z M174.3,158.9h-0.2v0.2
			h0.2V158.9z M177.2,154.4v-0.2H177v0.2H177.2z M177.2,156.6H177v0.2h0.2V156.6z M177.2,149.9v-0.2H177v0.2H177.2z M177.2,152.1
			H177v0.2h0.2V152.1z M174.3,147.9h6.4v-0.4h-6.4V147.9z M180.7,147.9c1,0,1.7,0.2,2.2,0.7l0.3-0.3c-0.5-0.5-1.4-0.8-2.4-0.8V147.9
			z M182.9,148.5c0.4,0.4,0.7,1.1,0.7,2h0.4c0-1-0.3-1.8-0.8-2.3L182.9,148.5z M183.6,150.5c0,0.6-0.1,1.1-0.4,1.5l0.3,0.2
			c0.3-0.4,0.5-1,0.5-1.7H183.6z M183.2,152c-0.3,0.4-0.6,0.6-0.9,0.8l0.1,0.4c0.4-0.2,0.8-0.5,1.1-0.9L183.2,152z M182.3,153.1
			c0.2,0.1,0.4,0.2,0.7,0.3l0.2-0.3c-0.2-0.1-0.5-0.3-0.8-0.3L182.3,153.1z M182.9,153.4c0.2,0.1,0.4,0.3,0.5,0.5l0.3-0.2
			c-0.2-0.3-0.4-0.5-0.7-0.6L182.9,153.4z M183.5,153.9c0.2,0.2,0.3,0.5,0.4,0.8l0.4-0.1c-0.1-0.4-0.3-0.7-0.5-0.9L183.5,153.9z
			 M183.9,154.7c0.1,0.3,0.2,0.7,0.2,1.1h0.4c0-0.5-0.1-0.9-0.2-1.2L183.9,154.7z M184.1,155.8c0,1-0.2,1.7-0.7,2.2l0.3,0.3
			c0.5-0.5,0.8-1.4,0.8-2.4H184.1z M183.4,158c-0.4,0.4-1.1,0.7-2.2,0.7v0.4c1.1,0,1.9-0.3,2.4-0.8L183.4,158z M181.2,158.7h-6.9
			v0.4h6.9V158.7z M174.5,158.9v-11.2h-0.4v11.2H174.5z M181.6,155.3c0-0.4-0.1-0.7-0.3-0.9c-0.2-0.2-0.5-0.3-0.9-0.3v0.4
			c0.3,0,0.5,0.1,0.6,0.2c0.1,0.1,0.2,0.3,0.2,0.6H181.6z M180.4,154.2h-3.2v0.4h3.2V154.2z M177,154.4v2.2h0.4v-2.2H177z
			 M177.2,156.8h3.2v-0.4h-3.2V156.8z M180.4,156.8c0.4,0,0.7-0.1,0.9-0.3c0.2-0.2,0.3-0.5,0.3-0.9h-0.4c0,0.3-0.1,0.5-0.2,0.6
			c-0.1,0.1-0.3,0.2-0.6,0.2V156.8z M181.6,155.7v-0.3h-0.4v0.3H181.6z M181.1,150.9c0-0.3-0.1-0.6-0.3-0.9
			c-0.2-0.2-0.5-0.3-0.9-0.3v0.4c0.3,0,0.5,0.1,0.6,0.2c0.1,0.1,0.2,0.3,0.2,0.6H181.1z M179.9,149.7h-2.7v0.4h2.7V149.7z
			 M177,149.9v2.2h0.4v-2.2H177z M177.2,152.3h2.7v-0.4h-2.7V152.3z M179.9,152.3c0.4,0,0.7-0.1,0.9-0.3c0.2-0.2,0.3-0.5,0.3-0.9
			h-0.4c0,0.3-0.1,0.5-0.2,0.6c-0.1,0.1-0.3,0.2-0.6,0.2V152.3z M181.1,151.2v-0.3h-0.4v0.3H181.1z M198.7,158.3l-0.1-0.1l0,0
			L198.7,158.3z M189.8,158.3l-0.1,0.1l0,0L189.8,158.3z M189.8,148.3l-0.1-0.1l0,0L189.8,148.3z M198.7,148.3l-0.1,0.1l0,0
			L198.7,148.3z M196.8,150.7c0-0.4-0.1-0.7-0.3-0.9s-0.5-0.3-0.9-0.3v0.4c0.3,0,0.5,0.1,0.6,0.2c0.1,0.1,0.2,0.3,0.2,0.6H196.8z
			 M195.6,149.5h-2.7v0.4h2.7V149.5z M192.9,149.5c-0.4,0-0.7,0.1-0.9,0.3s-0.3,0.5-0.3,0.9h0.4c0-0.3,0.1-0.5,0.2-0.6
			c0.1-0.1,0.3-0.2,0.6-0.2V149.5z M191.7,150.7v5.1h0.4v-5.1H191.7z M191.7,155.8c0,0.4,0.1,0.7,0.3,0.9s0.5,0.3,0.9,0.3v-0.4
			c-0.3,0-0.5-0.1-0.6-0.2c-0.1-0.1-0.2-0.3-0.2-0.6H191.7z M192.9,157h2.7v-0.4h-2.7V157z M195.6,157c0.4,0,0.7-0.1,0.9-0.3
			s0.3-0.5,0.3-0.9h-0.4c0,0.3-0.1,0.5-0.2,0.6c-0.1,0.1-0.3,0.2-0.6,0.2V157z M196.8,155.8v-5.1h-0.4v5.1H196.8z M199.3,155.8
			c0,1.1-0.3,1.8-0.7,2.3l0.3,0.3c0.6-0.6,0.8-1.4,0.8-2.6H199.3z M198.5,158.1c-0.4,0.4-1.2,0.7-2.3,0.7v0.4c1.1,0,2-0.3,2.6-0.8
			L198.5,158.1z M196.3,158.8h-4v0.4h4V158.8z M192.3,158.8c-1.1,0-1.8-0.2-2.3-0.7l-0.3,0.3c0.6,0.6,1.4,0.8,2.6,0.8V158.8z
			 M189.9,158.1c-0.4-0.5-0.7-1.2-0.7-2.3h-0.4c0,1.1,0.3,2,0.8,2.6L189.9,158.1z M189.3,155.8v-5.1h-0.4v5.1H189.3z M189.3,150.7
			c0-1.1,0.2-1.8,0.7-2.3l-0.3-0.3c-0.6,0.6-0.8,1.4-0.8,2.6H189.3z M189.9,148.4c0.5-0.5,1.2-0.7,2.3-0.7v-0.4
			c-1.1,0-2,0.3-2.6,0.8L189.9,148.4z M192.3,147.7h4v-0.4h-4V147.7z M196.3,147.7c1.1,0,1.8,0.3,2.3,0.7l0.3-0.3
			c-0.6-0.6-1.4-0.8-2.6-0.8V147.7z M198.5,148.4c0.5,0.4,0.7,1.2,0.7,2.3h0.4c0-1.1-0.3-2-0.8-2.6L198.5,148.4z M199.3,150.7v5.1
			h0.4v-5.1H199.3z M210.2,158.9v0.2h0.2v-0.2H210.2z M207.3,158.9h-0.2v0.2h0.2V158.9z M207.3,149.9h0.2v-0.2h-0.2V149.9z
			 M203.9,149.9h-0.2v0.2h0.2V149.9z M203.9,147.7v-0.2h-0.2v0.2H203.9z M213.5,147.7h0.2v-0.2h-0.2V147.7z M213.5,149.9v0.2h0.2
			v-0.2H213.5z M210.2,149.9v-0.2H210v0.2H210.2z M210.2,158.7h-2.9v0.4h2.9V158.7z M207.5,158.9v-9h-0.4v9H207.5z M207.3,149.7
			h-3.4v0.4h3.4V149.7z M204.1,149.9v-2.2h-0.4v2.2H204.1z M203.9,147.9h9.6v-0.4h-9.6V147.9z M213.3,147.7v2.2h0.4v-2.2H213.3z
			 M213.5,149.7h-3.4v0.4h3.4V149.7z M210,149.9v9h0.4v-9H210z"/>
	</g>
	<g>
		<path class="st5" d="M286.1,22.3c20.6,20.1,21,53.1,0.8,73.7c-20.1,20.6-53.1,21-73.7,0.8c-20.6-20.1-21-53.1-0.8-73.7
			C232.6,2.5,265.6,2.2,286.1,22.3z"/>
		<path class="st6" d="M249.7,111.6c28.8,0,52.1-23.3,52.1-52.1c0-28.8-23.3-52.1-52.1-52.1c-28.8,0-52.1,23.3-52.1,52.1
			C197.6,88.3,221,111.6,249.7,111.6z"/>
		<path class="st7" d="M249.7,100.9c22.8,0,41.3-18.5,41.3-41.3c0-22.8-18.5-41.3-41.3-41.3s-41.3,18.5-41.3,41.3
			C208.4,82.4,226.9,100.9,249.7,100.9z"/>
		<path class="st8" d="M249.7,100.2c-8,0-15.3-2.4-20.5-5.1c-2.6-1.4-4.7-2.8-6.1-4c-0.7-0.6-1.3-1.2-1.6-1.7
			c-0.4-0.5-0.5-0.8-0.5-0.9v-3.9c0-3.1,2.5-5.6,5.5-5.6h46.4c3.1,0,5.5,2.5,5.5,5.6v3.9c0,0.1-0.1,0.5-0.5,0.9
			c-0.4,0.5-0.9,1-1.6,1.7c-1.4,1.2-3.5,2.7-6.1,4C265,97.8,257.8,100.2,249.7,100.2z"/>
		<path class="st9" d="M257,74.8c-2,1.9-12.5,1.9-14.5,0"/>
		<path class="st8" d="M249.7,81.8c-1.8,0-3.6-0.2-4.9-0.7c-1.4-0.5-2.1-1.2-2.1-2v-6.9h14v6.9c0,0.8-0.7,1.5-2.1,2
			C253.3,81.6,251.5,81.8,249.7,81.8z"/>
		<path class="st10" d="M249.7,75.6c7.1,0,12.8-2.8,12.8-6.1c0-3.4-5.7-6.1-12.8-6.1c-7.1,0-12.8,2.8-12.8,6.1
			C236.9,72.9,242.7,75.6,249.7,75.6z"/>
		<path class="st10" d="M249.7,63.4c-7.1,0-12.8,2.8-12.8,6.1c0,1.6,1.3,3.1,3.4,4.2c1-0.2,2-0.5,2.8-1l1.8-1c2.9-1.6,6.5-1.6,9.4,0
			l1.9,1c0.9,0.5,1.9,0.8,2.9,1c2.1-1.1,3.4-2.6,3.4-4.2C262.6,66.1,256.8,63.4,249.7,63.4L249.7,63.4z"/>
		<path class="st8" d="M249.7,76c-3.6,0-6.8-0.7-9.2-1.9c-2.4-1.2-3.6-2.8-3.6-4.4c0-1.6,1.3-3.2,3.6-4.4c2.3-1.2,5.6-1.9,9.2-1.9
			c3.6,0,6.8,0.7,9.2,1.9c2.4,1.2,3.6,2.8,3.6,4.4c0,1.6-1.3,3.2-3.6,4.4C256.6,75.3,253.4,76,249.7,76z"/>
		<path class="st8" d="M272.9,70.4h-12.3c-1.4,0-2.8-0.4-4-1.2l-3-2c-2.4-1.6-5.5-1.6-7.9,0l-2.9,2c-1.2,0.8-2.6,1.2-4,1.2h-12.3
			c-3.2,0-5.8-2.6-5.8-5.8V42.8c0-3.2,2.6-5.8,5.8-5.8h46.4c3.2,0,5.8,2.6,5.8,5.8v21.8C278.7,67.8,276.2,70.5,272.9,70.4
			L272.9,70.4z"/>
		<path class="st11" d="M235.3,63.2c5.6,0,10.1-4.6,10.1-10.2s-4.5-10.2-10.1-10.2s-10.1,4.6-10.1,10.2S229.7,63.2,235.3,63.2z"/>
		<path class="st12" d="M235.3,60.3c4,0,7.3-3.3,7.3-7.3c0-4-3.2-7.3-7.3-7.3c-4,0-7.3,3.3-7.3,7.3C228,57,231.3,60.3,235.3,60.3z"
			/>
		<path d="M235.3,58.1c2.8,0,5.1-2.3,5.1-5.1s-2.3-5.1-5.1-5.1c-2.8,0-5.1,2.3-5.1,5.1S232.5,58.1,235.3,58.1z"/>
		<path class="st13" d="M233.7,52.9c0.8,0,1.5-0.7,1.5-1.5c0-0.8-0.6-1.5-1.5-1.5c-0.8,0-1.4,0.7-1.4,1.5
			C232.3,52.2,232.9,52.9,233.7,52.9z"/>
		<path class="st11" d="M264.2,63.2c5.6,0,10.1-4.6,10.1-10.2s-4.5-10.2-10.1-10.2s-10.1,4.6-10.1,10.2S258.6,63.2,264.2,63.2z"/>
		<path class="st12" d="M264.2,60.3c4,0,7.3-3.3,7.3-7.3c0-4-3.2-7.3-7.3-7.3c-4,0-7.3,3.3-7.3,7.3C257,57,260.2,60.3,264.2,60.3z"
			/>
		<path d="M264.2,58.1c2.8,0,5.1-2.3,5.1-5.1s-2.3-5.1-5.1-5.1s-5.1,2.3-5.1,5.1S261.4,58.1,264.2,58.1z"/>
		<path class="st13" d="M262.7,52.9c0.8,0,1.5-0.7,1.5-1.5c0-0.8-0.6-1.5-1.5-1.5c-0.8,0-1.5,0.7-1.5,1.5
			C261.2,52.2,261.9,52.9,262.7,52.9z"/>
		<path class="st12" d="M249.7,32.6V37"/>
		<path class="st12" d="M246.8,71.9h5.8"/>
		<path class="st8" d="M249.7,32.4h-0.3c-2.1-0.1-3.8-1.9-3.8-4.1c0-2.3,1.8-4.1,4.1-4.1c2.2,0,4.1,1.8,4.1,4.1
			C253.8,30.5,252,32.4,249.7,32.4z"/>
		<path d="M249.7,23.9c2.4,0,4.4,2,4.4,4.4c0,2.4-1.9,4.4-4.4,4.4c-2.4,0-4.4-2-4.4-4.4C245.4,25.8,247.3,23.9,249.7,23.9
			 M249.7,23.4c-2.7,0-4.8,2.2-4.8,4.8s2.2,4.8,4.8,4.8c2.7,0,4.8-2.2,4.8-4.8S252.4,23.4,249.7,23.4L249.7,23.4z"/>
		<defs>
			<filter id="Adobe_OpacityMaskFilter" filterUnits="userSpaceOnUse" x="243.9" y="22.4" width="11.7" height="11.7">
				<feColorMatrix  type="matrix" values="1 0 0 0 0  0 1 0 0 0  0 0 1 0 0  0 0 0 1 0"/>
			</filter>
		</defs>
		
			<mask maskUnits="userSpaceOnUse" x="243.9" y="22.4" width="11.7" height="11.7" id="path-31-inside-1_148_4576_00000135657710230261954190000009598144247231267251_">
			<path class="st14" d="M249.7,23.9c2.4,0,4.4,2,4.4,4.4c0,2.4-1.9,4.4-4.4,4.4c-2.4,0-4.4-2-4.4-4.4
				C245.4,25.8,247.3,23.9,249.7,23.9 M249.7,23.4c-2.7,0-4.8,2.2-4.8,4.8s2.2,4.8,4.8,4.8c2.7,0,4.8-2.2,4.8-4.8
				S252.4,23.4,249.7,23.4L249.7,23.4z"/>
		</mask>
		<path class="st15" d="M249.7,23.4h1v-1h-1V23.4z M249.7,23.4h-1v1h1V23.4z M249.7,24.9c1.8,0,3.4,1.5,3.4,3.4h2
			c0-3-2.4-5.4-5.4-5.4V24.9z M253.1,28.3c0,1.9-1.5,3.4-3.4,3.4v2c3,0,5.4-2.4,5.4-5.4H253.1z M249.7,31.6c-1.8,0-3.4-1.5-3.4-3.4
			h-2c0,3,2.4,5.4,5.4,5.4V31.6z M246.4,28.3c0-1.9,1.5-3.4,3.4-3.4v-2c-3,0-5.4,2.4-5.4,5.4H246.4z M249.7,22.4
			c-3.2,0-5.8,2.6-5.8,5.8h2c0-2.1,1.7-3.8,3.8-3.8V22.4z M243.9,28.2c0,3.2,2.6,5.8,5.8,5.8v-2c-2.1,0-3.8-1.7-3.8-3.8H243.9z
			 M249.7,34.1c3.2,0,5.8-2.6,5.8-5.8h-2c0,2.1-1.7,3.8-3.8,3.8V34.1z M255.6,28.2c0-3.2-2.6-5.8-5.8-5.8v2c2.1,0,3.8,1.7,3.8,3.8
			H255.6z M250.7,23.4L250.7,23.4h-2l0,0H250.7z"/>
	</g>
</g>
</svg>
