<svg width="827" height="304" viewBox="0 0 827 304" fill="none" xmlns="http://www.w3.org/2000/svg">
<mask id="path-1-outside-1_1_221" maskUnits="userSpaceOnUse" x="0.430664" y="0.605103" width="827" height="303" fill="black">
<rect fill="white" x="0.430664" y="0.605103" width="827" height="303"/>
<path fill-rule="evenodd" clip-rule="evenodd" d="M823.269 302.429H21.4306C10.3849 302.429 1.43066 293.475 1.43066 282.429V21.6051C1.43066 10.5594 10.385 1.6051 21.4307 1.6051H823.269C775.205 34.3283 743.641 89.4867 743.641 152.017C743.641 214.548 775.205 269.706 823.269 302.429Z"/>
</mask>
<path d="M823.269 302.429V302.929H824.892L823.55 302.016L823.269 302.429ZM823.269 1.6051L823.55 2.01841L824.892 1.1051H823.269V1.6051ZM823.269 301.929H821.264V302.929H823.269V301.929ZM817.255 301.929H813.246V302.929H817.255V301.929ZM809.237 301.929H805.227V302.929H809.237V301.929ZM801.218 301.929H797.209V302.929H801.218V301.929ZM793.2 301.929H789.191V302.929H793.2V301.929ZM785.181 301.929H781.172V302.929H785.181V301.929ZM777.163 301.929H773.154V302.929H777.163V301.929ZM769.145 301.929H765.135V302.929H769.145V301.929ZM761.126 301.929H757.117V302.929H761.126V301.929ZM753.108 301.929H749.099V302.929H753.108V301.929ZM745.089 301.929H741.08V302.929H745.089V301.929ZM737.071 301.929H733.062V302.929H737.071V301.929ZM729.053 301.929H725.043V302.929H729.053V301.929ZM721.034 301.929H717.025V302.929H721.034V301.929ZM713.016 301.929H709.007V302.929H713.016V301.929ZM704.998 301.929H700.988V302.929H704.998V301.929ZM696.979 301.929H692.97V302.929H696.979V301.929ZM688.961 301.929H684.952V302.929H688.961V301.929ZM680.942 301.929H676.933V302.929H680.942V301.929ZM672.924 301.929H668.915V302.929H672.924V301.929ZM664.906 301.929H660.896V302.929H664.906V301.929ZM656.887 301.929H652.878V302.929H656.887V301.929ZM648.869 301.929H644.86V302.929H648.869V301.929ZM640.851 301.929H636.841V302.929H640.851V301.929ZM632.832 301.929H628.823V302.929H632.832V301.929ZM624.814 301.929H620.805V302.929H624.814V301.929ZM616.795 301.929H612.786V302.929H616.795V301.929ZM608.777 301.929H604.768V302.929H608.777V301.929ZM600.759 301.929H596.749V302.929H600.759V301.929ZM592.74 301.929H588.731V302.929H592.74V301.929ZM584.722 301.929H580.713V302.929H584.722V301.929ZM576.704 301.929H572.694V302.929H576.704V301.929ZM568.685 301.929H564.676V302.929H568.685V301.929ZM560.667 301.929H556.658V302.929H560.667V301.929ZM552.648 301.929H548.639V302.929H552.648V301.929ZM544.63 301.929H540.621V302.929H544.63V301.929ZM536.612 301.929H532.602V302.929H536.612V301.929ZM528.593 301.929H524.584V302.929H528.593V301.929ZM520.575 301.929H516.566V302.929H520.575V301.929ZM512.557 301.929H508.547V302.929H512.557V301.929ZM504.538 301.929H500.529V302.929H504.538V301.929ZM496.52 301.929H492.511V302.929H496.52V301.929ZM488.501 301.929H484.492V302.929H488.501V301.929ZM480.483 301.929H476.474V302.929H480.483V301.929ZM472.465 301.929H468.456V302.929H472.465V301.929ZM464.446 301.929H460.437V302.929H464.446V301.929ZM456.428 301.929H452.419V302.929H456.428V301.929ZM448.41 301.929H444.4V302.929H448.41V301.929ZM440.391 301.929H436.382V302.929H440.391V301.929ZM432.373 301.929H428.364V302.929H432.373V301.929ZM424.354 301.929H420.345V302.929H424.354V301.929ZM416.336 301.929H412.327V302.929H416.336V301.929ZM408.318 301.929H404.309V302.929H408.318V301.929ZM400.299 301.929H396.29V302.929H400.299V301.929ZM392.281 301.929H388.272V302.929H392.281V301.929ZM384.263 301.929H380.253V302.929H384.263V301.929ZM376.244 301.929H372.235V302.929H376.244V301.929ZM368.226 301.929H364.217V302.929H368.226V301.929ZM360.208 301.929H356.198V302.929H360.208V301.929ZM352.189 301.929H348.18V302.929H352.189V301.929ZM344.171 301.929H340.162V302.929H344.171V301.929ZM336.152 301.929H332.143V302.929H336.152V301.929ZM328.134 301.929H324.125V302.929H328.134V301.929ZM320.116 301.929H316.106V302.929H320.116V301.929ZM312.097 301.929H308.088V302.929H312.097V301.929ZM304.079 301.929H300.07V302.929H304.079V301.929ZM296.06 301.929H292.051V302.929H296.06V301.929ZM288.042 301.929H284.033V302.929H288.042V301.929ZM280.024 301.929H276.014V302.929H280.024V301.929ZM272.005 301.929H267.996V302.929H272.005V301.929ZM263.987 301.929H259.977V302.929H263.987V301.929ZM255.968 301.929H251.959V302.929H255.968V301.929ZM247.95 301.929H243.941V302.929H247.95V301.929ZM239.931 301.929H235.922V302.929H239.931V301.929ZM231.913 301.929H227.904V302.929H231.913V301.929ZM223.895 301.929H219.885V302.929H223.895V301.929ZM215.876 301.929H211.867V302.929H215.876V301.929ZM207.858 301.929H203.848V302.929H207.858V301.929ZM199.839 301.929H195.83V302.929H199.839V301.929ZM191.821 301.929H187.812V302.929H191.821V301.929ZM183.802 301.929H179.793V302.929H183.802V301.929ZM175.784 301.929H171.775V302.929H175.784V301.929ZM167.765 301.929H163.756V302.929H167.765V301.929ZM159.747 301.929H155.738V302.929H159.747V301.929ZM151.729 301.929H147.719V302.929H151.729V301.929ZM143.71 301.929H139.701V302.929H143.71V301.929ZM135.692 301.929H131.683V302.929H135.692V301.929ZM127.673 301.929H123.664V302.929H127.673V301.929ZM119.655 301.929H115.646V302.929H119.655V301.929ZM111.636 301.929H107.627V302.929H111.636V301.929ZM103.618 301.929H99.6088V302.929H103.618V301.929ZM95.5996 301.929H91.5904V302.929H95.5996V301.929ZM87.5812 301.929H83.5719V302.929H87.5812V301.929ZM79.5627 301.929H75.5535V302.929H79.5627V301.929ZM71.5443 301.929H67.5351V302.929H71.5443V301.929ZM63.5259 301.929H59.5166V302.929H63.5259V301.929ZM55.5074 301.929H51.4982V302.929H55.5074V301.929ZM47.489 301.929H43.4798V302.929H47.489V301.929ZM39.4705 301.929H35.4614V302.929H39.4705V301.929ZM31.4521 301.929H27.4429V302.929H31.4521V301.929ZM23.4337 301.929H21.4306V302.929H23.4337V301.929ZM21.4306 301.929C20.7851 301.929 20.1471 301.898 19.518 301.837L19.4211 302.832C20.0824 302.896 20.7527 302.929 21.4306 302.929V301.929ZM15.768 301.095C14.535 300.721 13.3536 300.229 12.2371 299.631L11.765 300.512C12.9389 301.141 14.1812 301.659 15.478 302.052L15.768 301.095ZM9.06 297.504C8.07304 296.693 7.16709 295.787 6.35618 294.8L5.58353 295.435C6.43578 296.472 7.38789 297.424 8.42518 298.277L9.06 297.504ZM4.22944 291.623C3.63143 290.506 3.139 289.325 2.76545 288.092L1.80841 288.382C2.20129 289.679 2.71915 290.921 3.34792 292.095L4.22944 291.623ZM2.02324 284.342C1.96201 283.713 1.93066 283.075 1.93066 282.429H0.930664C0.930664 283.107 0.963585 283.778 1.02794 284.439L2.02324 284.342ZM1.93066 282.429V280.453H0.930664V282.429H1.93066ZM1.93066 276.502V272.55H0.930664V276.502H1.93066ZM1.93066 268.598V264.646H0.930664V268.598H1.93066ZM1.93066 260.694V256.742H0.930664V260.694H1.93066ZM1.93066 252.79V248.838H0.930664V252.79H1.93066ZM1.93066 244.887V240.935H0.930664V244.887H1.93066ZM1.93066 236.983V233.031H0.930664V236.983H1.93066ZM1.93066 229.079V225.127H0.930664V229.079H1.93066ZM1.93066 221.175V217.223H0.930664V221.175H1.93066ZM1.93066 213.271V209.32H0.930664V213.271H1.93066ZM1.93066 205.368V201.416H0.930664V205.368H1.93066ZM1.93066 197.464V193.512H0.930664V197.464H1.93066ZM1.93066 189.56V185.608H0.930664V189.56H1.93066ZM1.93066 181.656V177.705H0.930664V181.656H1.93066ZM1.93066 173.753V169.801H0.930664V173.753H1.93066ZM1.93066 165.849V161.897H0.930664V165.849H1.93066ZM1.93066 157.945V153.993H0.930664V157.945H1.93066ZM1.93066 150.041V146.089H0.930664V150.041H1.93066ZM1.93066 142.138V138.186H0.930664V142.138H1.93066ZM1.93066 134.234V130.282H0.930664V134.234H1.93066ZM1.93066 126.33V122.378H0.930664V126.33H1.93066ZM1.93066 118.426V114.474H0.930664V118.426H1.93066ZM1.93066 110.522V106.571H0.930664V110.522H1.93066ZM1.93066 102.619V98.6668H0.930664V102.619H1.93066ZM1.93066 94.7149V90.763H0.930664V94.7149H1.93066ZM1.93066 86.8111V82.8592H0.930664V86.8111H1.93066ZM1.93066 78.9073V74.9554H0.930664V78.9073H1.93066ZM1.93066 71.0035V67.0517H0.930664V71.0035H1.93066ZM1.93066 63.0998V59.1479H0.930664V63.0998H1.93066ZM1.93066 55.196V51.2441H0.930664V55.196H1.93066ZM1.93066 47.2922V43.3403H0.930664V47.2922H1.93066ZM1.93066 39.3884V35.4366H0.930664V39.3884H1.93066ZM1.93066 31.4847V27.5328H0.930664V31.4847H1.93066ZM1.93066 23.5809V21.6051H0.930664V23.5809H1.93066ZM1.93066 21.6051C1.93066 20.9596 1.96201 20.3216 2.02324 19.6924L1.02794 19.5956C0.963585 20.2569 0.930664 20.9272 0.930664 21.6051H1.93066ZM2.76545 15.9424C3.139 14.7095 3.63143 13.5281 4.22944 12.4116L3.34793 11.9394C2.71915 13.1133 2.20129 14.3557 1.80841 15.6525L2.76545 15.9424ZM6.35619 9.23446C7.1671 8.2475 8.07305 7.34155 9.06001 6.53064L8.42519 5.75798C7.3879 6.61024 6.43579 7.56235 5.58353 8.59964L6.35619 9.23446ZM12.2371 4.40388C13.3536 3.80587 14.535 3.31344 15.768 2.93989L15.478 1.98285C14.1813 2.37573 12.9389 2.8936 11.765 3.52237L12.2371 4.40388ZM19.518 2.19768C20.1471 2.13645 20.7852 2.1051 21.4307 2.1051V1.1051C20.7528 1.1051 20.0824 1.13802 19.4211 1.20238L19.518 2.19768ZM21.4307 2.1051H23.4353V1.1051H21.4307V2.1051ZM27.4444 2.1051H31.4536V1.1051H27.4444V2.1051ZM35.4628 2.1051H39.472V1.1051H35.4628V2.1051ZM43.4812 2.1051H47.4904V1.1051H43.4812V2.1051ZM51.4996 2.1051H55.5088V1.1051H51.4996V2.1051ZM59.518 2.1051H63.5272V1.1051H59.518V2.1051ZM67.5363 2.1051H71.5455V1.1051H67.5363V2.1051ZM75.5547 2.1051H79.5639V1.1051H75.5547V2.1051ZM83.5731 2.1051H87.5823V1.1051H83.5731V2.1051ZM91.5915 2.1051H95.6007V1.1051H91.5915V2.1051ZM99.6099 2.1051H103.619V1.1051H99.6099V2.1051ZM107.628 2.1051H111.637V1.1051H107.628V2.1051ZM115.647 2.1051H119.656V1.1051H115.647V2.1051ZM123.665 2.1051H127.674V1.1051H123.665V2.1051ZM131.683 2.1051H135.693V1.1051H131.683V2.1051ZM139.702 2.1051H143.711V1.1051H139.702V2.1051ZM147.72 2.1051H151.729V1.1051H147.72V2.1051ZM155.739 2.1051H159.748V1.1051H155.739V2.1051ZM163.757 2.1051H167.766V1.1051H163.757V2.1051ZM171.775 2.1051H175.785V1.1051H171.775V2.1051ZM179.794 2.1051H183.803V1.1051H179.794V2.1051ZM187.812 2.1051H191.821V1.1051H187.812V2.1051ZM195.83 2.1051H199.84V1.1051H195.83V2.1051ZM203.849 2.1051H207.858V1.1051H203.849V2.1051ZM211.867 2.1051H215.876V1.1051H211.867V2.1051ZM219.886 2.1051H223.895V1.1051H219.886V2.1051ZM227.904 2.1051H231.913V1.1051H227.904V2.1051ZM235.922 2.1051H239.931V1.1051H235.922V2.1051ZM243.941 2.1051H247.95V1.1051H243.941V2.1051ZM251.959 2.1051H255.968V1.1051H251.959V2.1051ZM259.977 2.1051H263.987V1.1051H259.977V2.1051ZM267.996 2.1051H272.005V1.1051H267.996V2.1051ZM276.014 2.1051H280.023V1.1051H276.014V2.1051ZM284.033 2.1051H288.042V1.1051H284.033V2.1051ZM292.051 2.1051H296.06V1.1051H292.051V2.1051ZM300.069 2.1051H304.078V1.1051H300.069V2.1051ZM308.088 2.1051H312.097V1.1051H308.088V2.1051ZM316.106 2.1051H320.115V1.1051H316.106V2.1051ZM324.124 2.1051H328.134V1.1051H324.124V2.1051ZM332.143 2.1051H336.152V1.1051H332.143V2.1051ZM340.161 2.1051H344.17V1.1051H340.161V2.1051ZM348.18 2.1051H352.189V1.1051H348.18V2.1051ZM356.198 2.1051H360.207V1.1051H356.198V2.1051ZM364.216 2.1051H368.225V1.1051H364.216V2.1051ZM372.235 2.1051H376.244V1.1051H372.235V2.1051ZM380.253 2.1051H384.262V1.1051H380.253V2.1051ZM388.271 2.1051H392.281V1.1051H388.271V2.1051ZM396.29 2.1051H400.299V1.1051H396.29V2.1051ZM404.308 2.1051H408.317V1.1051H404.308V2.1051ZM412.326 2.1051H416.336V1.1051H412.326V2.1051ZM420.345 2.1051H424.354V1.1051H420.345V2.1051ZM428.363 2.1051H432.372V1.1051H428.363V2.1051ZM436.382 2.1051H440.391V1.1051H436.382V2.1051ZM444.4 2.1051H448.409V1.1051H444.4V2.1051ZM452.418 2.1051H456.428V1.1051H452.418V2.1051ZM460.437 2.1051H464.446V1.1051H460.437V2.1051ZM468.455 2.1051H472.464V1.1051H468.455V2.1051ZM476.473 2.1051H480.483V1.1051H476.473V2.1051ZM484.492 2.1051H488.501V1.1051H484.492V2.1051ZM492.51 2.1051H496.519V1.1051H492.51V2.1051ZM500.529 2.1051H504.538V1.1051H500.529V2.1051ZM508.547 2.1051H512.556V1.1051H508.547V2.1051ZM516.565 2.1051H520.574V1.1051H516.565V2.1051ZM524.584 2.1051H528.593V1.1051H524.584V2.1051ZM532.602 2.1051H536.611V1.1051H532.602V2.1051ZM540.62 2.1051H544.63V1.1051H540.62V2.1051ZM548.639 2.1051H552.648V1.1051H548.639V2.1051ZM556.657 2.1051H560.667V1.1051H556.657V2.1051ZM564.676 2.1051H568.685V1.1051H564.676V2.1051ZM572.694 2.1051H576.703V1.1051H572.694V2.1051ZM580.713 2.1051H584.722V1.1051H580.713V2.1051ZM588.731 2.1051H592.74V1.1051H588.731V2.1051ZM596.75 2.1051H600.759V1.1051H596.75V2.1051ZM604.768 2.1051H608.777V1.1051H604.768V2.1051ZM612.786 2.1051H616.796V1.1051H612.786V2.1051ZM620.805 2.1051H624.814V1.1051H620.805V2.1051ZM628.823 2.1051H632.832V1.1051H628.823V2.1051ZM636.842 2.1051H640.851V1.1051H636.842V2.1051ZM644.86 2.1051H648.869V1.1051H644.86V2.1051ZM652.879 2.1051H656.888V1.1051H652.879V2.1051ZM660.897 2.1051H664.906V1.1051H660.897V2.1051ZM668.915 2.1051H672.925V1.1051H668.915V2.1051ZM676.934 2.1051H680.943V1.1051H676.934V2.1051ZM684.952 2.1051H688.961V1.1051H684.952V2.1051ZM692.971 2.1051H696.98V1.1051H692.971V2.1051ZM700.989 2.1051H704.998V1.1051H700.989V2.1051ZM709.008 2.1051H713.017V1.1051H709.008V2.1051ZM717.026 2.1051H721.035V1.1051H717.026V2.1051ZM725.044 2.1051H729.054V1.1051H725.044V2.1051ZM733.063 2.1051H737.072V1.1051H733.063V2.1051ZM741.081 2.1051H745.091V1.1051H741.081V2.1051ZM749.1 2.1051H753.109V1.1051H749.1V2.1051ZM757.118 2.1051H761.127V1.1051H757.118V2.1051ZM765.137 2.1051H769.146V1.1051H765.137V2.1051ZM773.155 2.1051H777.164V1.1051H773.155V2.1051ZM781.173 2.1051H785.183V1.1051H781.173V2.1051ZM789.192 2.1051H793.201V1.1051H789.192V2.1051ZM797.21 2.1051H801.22V1.1051H797.21V2.1051ZM805.229 2.1051H809.238V1.1051H805.229V2.1051ZM813.247 2.1051H817.256V1.1051H813.247V2.1051ZM821.266 2.1051H823.269V1.1051H821.266V2.1051ZM822.987 1.1918C822.431 1.5706 821.877 1.9524 821.325 2.33717L821.897 3.15751C822.446 2.77484 822.997 2.39513 823.55 2.01841L822.987 1.1918ZM818.04 4.68163C816.953 5.47551 815.875 6.28112 814.807 7.09828L815.414 7.8926C816.477 7.0799 817.548 6.27869 818.629 5.48915L818.04 4.68163ZM811.627 9.58566C810.577 10.4266 809.536 11.2788 808.504 12.1423L809.146 12.9091C810.172 12.0503 811.207 11.2027 812.252 10.3664L811.627 9.58566ZM805.438 14.767C804.426 15.6533 803.423 16.5506 802.43 17.4588L803.105 18.1966C804.092 17.2934 805.09 16.401 806.097 15.5195L805.438 14.767ZM799.482 20.216C798.51 21.1459 797.548 22.0864 796.596 23.0374L797.303 23.7448C798.249 22.799 799.206 21.8636 800.174 20.9388L799.482 20.216ZM793.772 25.9216C792.842 26.8933 791.922 27.8752 791.013 28.8673L791.75 29.5429C792.654 28.5562 793.569 27.5797 794.495 26.6133L793.772 25.9216ZM788.319 31.8728C787.432 32.8844 786.556 33.9059 785.692 34.9371L786.458 35.5796C787.318 34.554 788.189 33.5381 789.071 32.5321L788.319 31.8728ZM783.132 38.0586C782.291 39.1081 781.461 40.1671 780.643 41.2353L781.437 41.8435C782.251 40.781 783.076 39.7278 783.913 38.6841L783.132 38.0586ZM778.224 44.4663C777.43 45.5518 776.647 46.6465 775.876 47.7501L776.696 48.3226C777.463 47.225 778.241 46.1364 779.031 45.0567L778.224 44.4663ZM773.602 51.0851C772.857 52.2043 772.123 53.3323 771.402 54.4688L772.247 55.0045C772.964 53.8743 773.693 52.7525 774.434 51.6394L773.602 51.0851ZM769.278 57.9006C768.583 59.0519 767.9 60.2115 767.23 61.3792L768.097 61.877C768.764 60.7157 769.443 59.5625 770.134 58.4175L769.278 57.9006ZM765.259 64.9021C764.616 66.0826 763.985 67.271 763.368 68.467L764.256 68.9259C764.87 67.7364 765.498 66.5546 766.137 65.3806L765.259 64.9021ZM761.555 72.0737C760.965 73.2819 760.388 74.4976 759.823 75.7206L760.731 76.1395C761.293 74.9232 761.867 73.7143 762.454 72.5127L761.555 72.0737ZM758.174 79.4041C757.638 80.6367 757.115 81.8763 756.606 83.1229L757.532 83.501C758.038 82.2613 758.558 81.0285 759.091 79.8027L758.174 79.4041ZM755.122 86.8767C754.641 88.1325 754.174 89.395 753.721 90.664L754.663 91.0004C755.114 89.7385 755.578 88.4829 756.056 87.2341L755.122 86.8767ZM752.406 94.4786C751.982 95.7537 751.572 97.035 751.176 98.3224L752.132 98.6165C752.526 97.3362 752.934 96.062 753.355 94.7939L752.406 94.4786ZM750.032 102.194C749.665 103.487 749.313 104.786 748.974 106.09L749.942 106.342C750.279 105.044 750.63 103.753 750.994 102.467L750.032 102.194ZM748.005 110.007C747.696 111.314 747.402 112.627 747.122 113.946L748.1 114.153C748.379 112.842 748.671 111.537 748.978 110.236L748.005 110.007ZM746.327 117.905C746.077 119.224 745.842 120.549 745.621 121.878L746.607 122.042C746.827 120.72 747.061 119.403 747.309 118.091L746.327 117.905ZM745.003 125.865C744.812 127.195 744.635 128.529 744.473 129.868L745.466 129.988C745.627 128.657 745.803 127.33 745.993 126.007L745.003 125.865ZM744.032 133.881C743.9 135.216 743.783 136.556 743.68 137.899L744.677 137.976C744.779 136.639 744.896 135.307 745.027 133.979L744.032 133.881ZM743.416 141.928C743.343 143.269 743.284 144.614 743.24 145.963L744.239 145.996C744.283 144.654 744.341 143.316 744.414 141.982L743.416 141.928ZM743.152 149.994C743.145 150.668 743.141 151.342 743.141 152.017H744.141C744.141 151.346 744.145 150.675 744.152 150.005L743.152 149.994ZM743.141 152.017C743.141 152.692 743.145 153.367 743.152 154.04L744.152 154.029C744.145 153.359 744.141 152.689 744.141 152.017H743.141ZM743.24 158.071C743.284 159.42 743.343 160.766 743.416 162.107L744.414 162.052C744.341 160.718 744.283 159.38 744.239 158.039L743.24 158.071ZM743.68 166.135C743.783 167.479 743.9 168.818 744.032 170.154L745.027 170.055C744.896 168.727 744.779 167.395 744.677 166.059L743.68 166.135ZM744.473 174.166C744.635 175.505 744.812 176.84 745.003 178.169L745.993 178.027C745.803 176.705 745.627 175.378 745.466 174.046L744.473 174.166ZM745.621 182.157C745.842 183.486 746.077 184.81 746.327 186.129L747.309 185.943C747.061 184.631 746.827 183.315 746.607 181.993L745.621 182.157ZM747.122 190.089C747.402 191.407 747.696 192.72 748.005 194.028L748.978 193.798C748.671 192.498 748.379 191.192 748.1 189.881L747.122 190.089ZM748.974 197.944C749.313 199.249 749.665 200.547 750.032 201.84L750.994 201.568C750.63 200.282 750.279 198.99 749.942 197.693L748.974 197.944ZM751.176 205.712C751.572 207 751.982 208.281 752.406 209.556L753.355 209.241C752.934 207.973 752.526 206.698 752.132 205.418L751.176 205.712ZM753.721 213.371C754.174 214.64 754.641 215.902 755.122 217.158L756.056 216.8C755.578 215.552 755.114 214.296 754.663 213.034L753.721 213.371ZM756.606 220.912C757.115 222.158 757.638 223.398 758.174 224.63L759.091 224.232C758.558 223.006 758.038 221.773 757.532 220.534L756.606 220.912ZM759.823 228.314C760.388 229.537 760.965 230.753 761.555 231.961L762.454 231.522C761.867 230.32 761.293 229.111 760.732 227.895L759.823 228.314ZM763.368 235.567C763.985 236.764 764.616 237.952 765.259 239.132L766.137 238.654C765.498 237.48 764.87 236.298 764.256 235.109L763.368 235.567ZM767.23 242.655C767.9 243.823 768.583 244.983 769.278 246.134L770.134 245.617C769.443 244.472 768.764 243.319 768.097 242.158L767.23 242.655ZM771.402 249.566C772.123 250.702 772.857 251.83 773.602 252.949L774.434 252.395C773.693 251.282 772.964 250.16 772.247 249.03L771.402 249.566ZM775.876 256.284C776.647 257.388 777.43 258.483 778.224 259.568L779.031 258.978C778.241 257.898 777.463 256.809 776.696 255.712L775.876 256.284ZM780.643 262.799C781.461 263.867 782.291 264.926 783.132 265.976L783.913 265.35C783.076 264.307 782.251 263.254 781.437 262.191L780.643 262.799ZM785.692 269.097C786.556 270.129 787.432 271.15 788.319 272.162L789.071 271.502C788.189 270.496 787.318 269.481 786.458 268.455L785.692 269.097ZM791.013 275.167C791.922 276.159 792.842 277.141 793.772 278.113L794.495 277.421C793.569 276.455 792.654 275.478 791.75 274.492L791.013 275.167ZM796.596 280.997C797.548 281.948 798.51 282.889 799.482 283.819L800.174 283.096C799.206 282.171 798.249 281.236 797.303 280.29L796.596 280.997ZM802.43 286.576C803.423 287.484 804.426 288.381 805.438 289.268L806.097 288.515C805.09 287.634 804.093 286.741 803.105 285.838L802.43 286.576ZM808.504 291.892C809.536 292.756 810.577 293.608 811.628 294.449L812.252 293.668C811.207 292.832 810.172 291.984 809.146 291.125L808.504 291.892ZM814.807 296.936C815.875 297.753 816.953 298.559 818.04 299.353L818.629 298.545C817.549 297.756 816.477 296.955 815.414 296.142L814.807 296.936ZM821.325 301.697C821.877 302.082 822.431 302.464 822.987 302.843L823.55 302.016C822.997 301.639 822.446 301.26 821.897 300.877L821.325 301.697ZM823.269 302.429V303.429H826.514L823.831 301.603L823.269 302.429ZM823.269 1.6051L823.831 2.43171L826.514 0.605103H823.269V1.6051ZM823.269 301.429H821.264V303.429H823.269V301.429ZM817.255 301.429H813.246V303.429H817.255V301.429ZM809.237 301.429H805.227V303.429H809.237V301.429ZM801.218 301.429H797.209V303.429H801.218V301.429ZM793.2 301.429H789.191V303.429H793.2V301.429ZM785.181 301.429H781.172V303.429H785.181V301.429ZM777.163 301.429H773.154V303.429H777.163V301.429ZM769.145 301.429H765.135V303.429H769.145V301.429ZM761.126 301.429H757.117V303.429H761.126V301.429ZM753.108 301.429H749.099V303.429H753.108V301.429ZM745.089 301.429H741.08V303.429H745.089V301.429ZM737.071 301.429H733.062V303.429H737.071V301.429ZM729.053 301.429H725.043V303.429H729.053V301.429ZM721.034 301.429H717.025V303.429H721.034V301.429ZM713.016 301.429H709.007V303.429H713.016V301.429ZM704.998 301.429H700.988V303.429H704.998V301.429ZM696.979 301.429H692.97V303.429H696.979V301.429ZM688.961 301.429H684.952V303.429H688.961V301.429ZM680.942 301.429H676.933V303.429H680.942V301.429ZM672.924 301.429H668.915V303.429H672.924V301.429ZM664.906 301.429H660.896V303.429H664.906V301.429ZM656.887 301.429H652.878V303.429H656.887V301.429ZM648.869 301.429H644.86V303.429H648.869V301.429ZM640.851 301.429H636.841V303.429H640.851V301.429ZM632.832 301.429H628.823V303.429H632.832V301.429ZM624.814 301.429H620.805V303.429H624.814V301.429ZM616.795 301.429H612.786V303.429H616.795V301.429ZM608.777 301.429H604.768V303.429H608.777V301.429ZM600.759 301.429H596.749V303.429H600.759V301.429ZM592.74 301.429H588.731V303.429H592.74V301.429ZM584.722 301.429H580.713V303.429H584.722V301.429ZM576.704 301.429H572.694V303.429H576.704V301.429ZM568.685 301.429H564.676V303.429H568.685V301.429ZM560.667 301.429H556.658V303.429H560.667V301.429ZM552.648 301.429H548.639V303.429H552.648V301.429ZM544.63 301.429H540.621V303.429H544.63V301.429ZM536.612 301.429H532.602V303.429H536.612V301.429ZM528.593 301.429H524.584V303.429H528.593V301.429ZM520.575 301.429H516.566V303.429H520.575V301.429ZM512.557 301.429H508.547V303.429H512.557V301.429ZM504.538 301.429H500.529V303.429H504.538V301.429ZM496.52 301.429H492.511V303.429H496.52V301.429ZM488.501 301.429H484.492V303.429H488.501V301.429ZM480.483 301.429H476.474V303.429H480.483V301.429ZM472.465 301.429H468.456V303.429H472.465V301.429ZM464.446 301.429H460.437V303.429H464.446V301.429ZM456.428 301.429H452.419V303.429H456.428V301.429ZM448.41 301.429H444.4V303.429H448.41V301.429ZM440.391 301.429H436.382V303.429H440.391V301.429ZM432.373 301.429H428.364V303.429H432.373V301.429ZM424.354 301.429H420.345V303.429H424.354V301.429ZM416.336 301.429H412.327V303.429H416.336V301.429ZM408.318 301.429H404.309V303.429H408.318V301.429ZM400.299 301.429H396.29V303.429H400.299V301.429ZM392.281 301.429H388.272V303.429H392.281V301.429ZM384.263 301.429H380.253V303.429H384.263V301.429ZM376.244 301.429H372.235V303.429H376.244V301.429ZM368.226 301.429H364.217V303.429H368.226V301.429ZM360.208 301.429H356.198V303.429H360.208V301.429ZM352.189 301.429H348.18V303.429H352.189V301.429ZM344.171 301.429H340.162V303.429H344.171V301.429ZM336.152 301.429H332.143V303.429H336.152V301.429ZM328.134 301.429H324.125V303.429H328.134V301.429ZM320.116 301.429H316.106V303.429H320.116V301.429ZM312.097 301.429H308.088V303.429H312.097V301.429ZM304.079 301.429H300.07V303.429H304.079V301.429ZM296.06 301.429H292.051V303.429H296.06V301.429ZM288.042 301.429H284.033V303.429H288.042V301.429ZM280.024 301.429H276.014V303.429H280.024V301.429ZM272.005 301.429H267.996V303.429H272.005V301.429ZM263.987 301.429H259.977V303.429H263.987V301.429ZM255.968 301.429H251.959V303.429H255.968V301.429ZM247.95 301.429H243.941V303.429H247.95V301.429ZM239.931 301.429H235.922V303.429H239.931V301.429ZM231.913 301.429H227.904V303.429H231.913V301.429ZM223.895 301.429H219.885V303.429H223.895V301.429ZM215.876 301.429H211.867V303.429H215.876V301.429ZM207.858 301.429H203.848V303.429H207.858V301.429ZM199.839 301.429H195.83V303.429H199.839V301.429ZM191.821 301.429H187.812V303.429H191.821V301.429ZM183.802 301.429H179.793V303.429H183.802V301.429ZM175.784 301.429H171.775V303.429H175.784V301.429ZM167.765 301.429H163.756V303.429H167.765V301.429ZM159.747 301.429H155.738V303.429H159.747V301.429ZM151.729 301.429H147.719V303.429H151.729V301.429ZM143.71 301.429H139.701V303.429H143.71V301.429ZM135.692 301.429H131.683V303.429H135.692V301.429ZM127.673 301.429H123.664V303.429H127.673V301.429ZM119.655 301.429H115.646V303.429H119.655V301.429ZM111.636 301.429H107.627V303.429H111.636V301.429ZM103.618 301.429H99.6088V303.429H103.618V301.429ZM95.5996 301.429H91.5904V303.429H95.5996V301.429ZM87.5812 301.429H83.5719V303.429H87.5812V301.429ZM79.5627 301.429H75.5535V303.429H79.5627V301.429ZM71.5443 301.429H67.5351V303.429H71.5443V301.429ZM63.5259 301.429H59.5166V303.429H63.5259V301.429ZM55.5074 301.429H51.4982V303.429H55.5074V301.429ZM47.489 301.429H43.4798V303.429H47.489V301.429ZM39.4705 301.429H35.4614V303.429H39.4705V301.429ZM31.4521 301.429H27.4429V303.429H31.4521V301.429ZM23.4337 301.429H21.4306V303.429H23.4337V301.429ZM21.4306 301.429C20.8013 301.429 20.1795 301.399 19.5664 301.339L19.3727 303.33C20.05 303.396 20.7365 303.429 21.4306 303.429V301.429ZM15.9129 300.616C14.7119 300.252 13.561 299.773 12.4732 299.19L11.5289 300.953C12.7315 301.597 14.0044 302.128 15.333 302.53L15.9129 300.616ZM9.37742 297.118C8.41561 296.327 7.53275 295.444 6.74251 294.483L5.1972 295.752C6.07013 296.815 7.04531 297.79 8.10776 298.663L9.37742 297.118ZM4.6702 291.387C4.08756 290.299 3.60786 289.148 3.24397 287.947L1.32989 288.527C1.73243 289.856 2.26301 291.129 2.90716 292.331L4.6702 291.387ZM2.52089 284.294C2.46122 283.681 2.43066 283.059 2.43066 282.429H0.430664C0.430664 283.124 0.464372 283.81 0.530293 284.487L2.52089 284.294ZM2.43066 282.429V280.453H0.430664V282.429H2.43066ZM2.43066 276.502V272.55H0.430664V276.502H2.43066ZM2.43066 268.598V264.646H0.430664V268.598H2.43066ZM2.43066 260.694V256.742H0.430664V260.694H2.43066ZM2.43066 252.79V248.838H0.430664V252.79H2.43066ZM2.43066 244.887V240.935H0.430664V244.887H2.43066ZM2.43066 236.983V233.031H0.430664V236.983H2.43066ZM2.43066 229.079V225.127H0.430664V229.079H2.43066ZM2.43066 221.175V217.223H0.430664V221.175H2.43066ZM2.43066 213.271V209.32H0.430664V213.271H2.43066ZM2.43066 205.368V201.416H0.430664V205.368H2.43066ZM2.43066 197.464V193.512H0.430664V197.464H2.43066ZM2.43066 189.56V185.608H0.430664V189.56H2.43066ZM2.43066 181.656V177.705H0.430664V181.656H2.43066ZM2.43066 173.753V169.801H0.430664V173.753H2.43066ZM2.43066 165.849V161.897H0.430664V165.849H2.43066ZM2.43066 157.945V153.993H0.430664V157.945H2.43066ZM2.43066 150.041V146.089H0.430664V150.041H2.43066ZM2.43066 142.138V138.186H0.430664V142.138H2.43066ZM2.43066 134.234V130.282H0.430664V134.234H2.43066ZM2.43066 126.33V122.378H0.430664V126.33H2.43066ZM2.43066 118.426V114.474H0.430664V118.426H2.43066ZM2.43066 110.522V106.571H0.430664V110.522H2.43066ZM2.43066 102.619V98.6668H0.430664V102.619H2.43066ZM2.43066 94.7149V90.763H0.430664V94.7149H2.43066ZM2.43066 86.8111V82.8592H0.430664V86.8111H2.43066ZM2.43066 78.9073V74.9554H0.430664V78.9073H2.43066ZM2.43066 71.0035V67.0517H0.430664V71.0035H2.43066ZM2.43066 63.0998V59.1479H0.430664V63.0998H2.43066ZM2.43066 55.196V51.2441H0.430664V55.196H2.43066ZM2.43066 47.2922V43.3403H0.430664V47.2922H2.43066ZM2.43066 39.3884V35.4366H0.430664V39.3884H2.43066ZM2.43066 31.4847V27.5328H0.430664V31.4847H2.43066ZM2.43066 23.5809V21.6051H0.430664V23.5809H2.43066ZM2.43066 21.6051C2.43066 20.9758 2.46122 20.3539 2.52089 19.7409L0.530293 19.5472C0.464372 20.2245 0.430664 20.911 0.430664 21.6051H2.43066ZM3.24397 16.0874C3.60786 14.8863 4.08757 13.7354 4.6702 12.6477L2.90717 11.7033C2.26302 12.906 1.73244 14.1788 1.32989 15.5075L3.24397 16.0874ZM6.74252 9.55188C7.53275 8.59007 8.41562 7.7072 9.37743 6.91696L8.10777 5.37166C7.04532 6.24458 6.07013 7.21977 5.19721 8.28222L6.74252 9.55188ZM12.4732 4.84464C13.561 4.26201 14.7119 3.7823 15.913 3.41841L15.333 1.50433C14.0044 1.90688 12.7315 2.43746 11.5289 3.08161L12.4732 4.84464ZM19.5664 2.69533C20.1795 2.63566 20.8014 2.6051 21.4307 2.6051V0.605103C20.7366 0.605103 20.0501 0.638811 19.3727 0.704732L19.5664 2.69533ZM21.4307 2.6051H23.4353V0.605103H21.4307V2.6051ZM27.4444 2.6051H31.4536V0.605103H27.4444V2.6051ZM35.4628 2.6051H39.472V0.605103H35.4628V2.6051ZM43.4812 2.6051H47.4904V0.605103H43.4812V2.6051ZM51.4996 2.6051H55.5088V0.605103H51.4996V2.6051ZM59.518 2.6051H63.5272V0.605103H59.518V2.6051ZM67.5363 2.6051H71.5455V0.605103H67.5363V2.6051ZM75.5547 2.6051H79.5639V0.605103H75.5547V2.6051ZM83.5731 2.6051H87.5823V0.605103H83.5731V2.6051ZM91.5915 2.6051H95.6007V0.605103H91.5915V2.6051ZM99.6099 2.6051H103.619V0.605103H99.6099V2.6051ZM107.628 2.6051H111.637V0.605103H107.628V2.6051ZM115.647 2.6051H119.656V0.605103H115.647V2.6051ZM123.665 2.6051H127.674V0.605103H123.665V2.6051ZM131.683 2.6051H135.693V0.605103H131.683V2.6051ZM139.702 2.6051H143.711V0.605103H139.702V2.6051ZM147.72 2.6051H151.729V0.605103H147.72V2.6051ZM155.739 2.6051H159.748V0.605103H155.739V2.6051ZM163.757 2.6051H167.766V0.605103H163.757V2.6051ZM171.775 2.6051H175.785V0.605103H171.775V2.6051ZM179.794 2.6051H183.803V0.605103H179.794V2.6051ZM187.812 2.6051H191.821V0.605103H187.812V2.6051ZM195.83 2.6051H199.84V0.605103H195.83V2.6051ZM203.849 2.6051H207.858V0.605103H203.849V2.6051ZM211.867 2.6051H215.876V0.605103H211.867V2.6051ZM219.886 2.6051H223.895V0.605103H219.886V2.6051ZM227.904 2.6051H231.913V0.605103H227.904V2.6051ZM235.922 2.6051H239.931V0.605103H235.922V2.6051ZM243.941 2.6051H247.95V0.605103H243.941V2.6051ZM251.959 2.6051H255.968V0.605103H251.959V2.6051ZM259.977 2.6051H263.987V0.605103H259.977V2.6051ZM267.996 2.6051H272.005V0.605103H267.996V2.6051ZM276.014 2.6051H280.023V0.605103H276.014V2.6051ZM284.033 2.6051H288.042V0.605103H284.033V2.6051ZM292.051 2.6051H296.06V0.605103H292.051V2.6051ZM300.069 2.6051H304.078V0.605103H300.069V2.6051ZM308.088 2.6051H312.097V0.605103H308.088V2.6051ZM316.106 2.6051H320.115V0.605103H316.106V2.6051ZM324.124 2.6051H328.134V0.605103H324.124V2.6051ZM332.143 2.6051H336.152V0.605103H332.143V2.6051ZM340.161 2.6051H344.17V0.605103H340.161V2.6051ZM348.18 2.6051H352.189V0.605103H348.18V2.6051ZM356.198 2.6051H360.207V0.605103H356.198V2.6051ZM364.216 2.6051H368.225V0.605103H364.216V2.6051ZM372.235 2.6051H376.244V0.605103H372.235V2.6051ZM380.253 2.6051H384.262V0.605103H380.253V2.6051ZM388.271 2.6051H392.281V0.605103H388.271V2.6051ZM396.29 2.6051H400.299V0.605103H396.29V2.6051ZM404.308 2.6051H408.317V0.605103H404.308V2.6051ZM412.326 2.6051H416.336V0.605103H412.326V2.6051ZM420.345 2.6051H424.354V0.605103H420.345V2.6051ZM428.363 2.6051H432.372V0.605103H428.363V2.6051ZM436.382 2.6051H440.391V0.605103H436.382V2.6051ZM444.4 2.6051H448.409V0.605103H444.4V2.6051ZM452.418 2.6051H456.428V0.605103H452.418V2.6051ZM460.437 2.6051H464.446V0.605103H460.437V2.6051ZM468.455 2.6051H472.464V0.605103H468.455V2.6051ZM476.473 2.6051H480.483V0.605103H476.473V2.6051ZM484.492 2.6051H488.501V0.605103H484.492V2.6051ZM492.51 2.6051H496.519V0.605103H492.51V2.6051ZM500.529 2.6051H504.538V0.605103H500.529V2.6051ZM508.547 2.6051H512.556V0.605103H508.547V2.6051ZM516.565 2.6051H520.574V0.605103H516.565V2.6051ZM524.584 2.6051H528.593V0.605103H524.584V2.6051ZM532.602 2.6051H536.611V0.605103H532.602V2.6051ZM540.62 2.6051H544.63V0.605103H540.62V2.6051ZM548.639 2.6051H552.648V0.605103H548.639V2.6051ZM556.657 2.6051H560.667V0.605103H556.657V2.6051ZM564.676 2.6051H568.685V0.605103H564.676V2.6051ZM572.694 2.6051H576.703V0.605103H572.694V2.6051ZM580.713 2.6051H584.722V0.605103H580.713V2.6051ZM588.731 2.6051H592.74V0.605103H588.731V2.6051ZM596.75 2.6051H600.759V0.605103H596.75V2.6051ZM604.768 2.6051H608.777V0.605103H604.768V2.6051ZM612.786 2.6051H616.796V0.605103H612.786V2.6051ZM620.805 2.6051H624.814V0.605103H620.805V2.6051ZM628.823 2.6051H632.832V0.605103H628.823V2.6051ZM636.842 2.6051H640.851V0.605103H636.842V2.6051ZM644.86 2.6051H648.869V0.605103H644.86V2.6051ZM652.879 2.6051H656.888V0.605103H652.879V2.6051ZM660.897 2.6051H664.906V0.605103H660.897V2.6051ZM668.915 2.6051H672.925V0.605103H668.915V2.6051ZM676.934 2.6051H680.943V0.605103H676.934V2.6051ZM684.952 2.6051H688.961V0.605103H684.952V2.6051ZM692.971 2.6051H696.98V0.605103H692.971V2.6051ZM700.989 2.6051H704.998V0.605103H700.989V2.6051ZM709.008 2.6051H713.017V0.605103H709.008V2.6051ZM717.026 2.6051H721.035V0.605103H717.026V2.6051ZM725.044 2.6051H729.054V0.605103H725.044V2.6051ZM733.063 2.6051H737.072V0.605103H733.063V2.6051ZM741.081 2.6051H745.091V0.605103H741.081V2.6051ZM749.1 2.6051H753.109V0.605103H749.1V2.6051ZM757.118 2.6051H761.127V0.605103H757.118V2.6051ZM765.137 2.6051H769.146V0.605103H765.137V2.6051ZM773.155 2.6051H777.164V0.605103H773.155V2.6051ZM781.173 2.6051H785.183V0.605103H781.173V2.6051ZM789.192 2.6051H793.201V0.605103H789.192V2.6051ZM797.21 2.6051H801.22V0.605103H797.21V2.6051ZM805.229 2.6051H809.238V0.605103H805.229V2.6051ZM813.247 2.6051H817.256V0.605103H813.247V2.6051ZM821.266 2.6051H823.269V0.605103H821.266V2.6051ZM822.706 0.778494C822.148 1.15833 821.592 1.54117 821.039 1.927L822.183 3.56768C822.73 3.18607 823.28 2.8074 823.831 2.43171L822.706 0.778494ZM817.745 4.27787C816.655 5.07392 815.574 5.88173 814.503 6.70112L815.718 8.28976C816.777 7.47929 817.846 6.68028 818.924 5.89292L817.745 4.27787ZM811.315 9.19529C810.262 10.0385 809.218 10.8931 808.183 11.7589L809.467 13.2925C810.49 12.4361 811.523 11.5908 812.565 10.7568L811.315 9.19529ZM805.109 14.3908C804.093 15.2795 803.088 16.1793 802.093 17.0899L803.443 18.5655C804.427 17.6648 805.422 16.7748 806.426 15.8957L805.109 14.3908ZM799.137 19.8546C798.162 20.787 797.197 21.7301 796.243 22.6837L797.656 24.0985C798.6 23.1553 799.555 22.2224 800.519 21.3002L799.137 19.8546ZM793.411 25.5758C792.478 26.5501 791.556 27.5347 790.644 28.5295L792.119 29.8807C793.02 28.8968 793.933 27.9228 794.856 26.9591L793.411 25.5758ZM787.943 31.5432C787.054 32.5576 786.175 33.5818 785.309 34.6158L786.841 35.9008C787.699 34.8781 788.567 33.865 789.447 32.8617L787.943 31.5432ZM782.742 37.7459C781.899 38.7982 781.066 39.8601 780.246 40.9313L781.834 42.1475C782.645 41.088 783.468 40.0377 784.303 38.9968L782.742 37.7459ZM777.82 44.171C777.024 45.2596 776.239 46.3572 775.466 47.4638L777.106 48.6088C777.871 47.5143 778.647 46.4286 779.434 45.352L777.82 44.171ZM773.186 50.808C772.439 51.9303 771.703 53.0613 770.98 54.2009L772.669 55.2724C773.384 54.1452 774.111 53.0265 774.851 51.9165L773.186 50.808ZM768.85 57.6421C768.153 58.7966 767.468 59.9593 766.796 61.1302L768.531 62.1259C769.195 60.9678 769.873 59.8178 770.562 58.676L768.85 57.6421ZM764.82 64.6629C764.175 65.8466 763.543 67.0382 762.923 68.2376L764.7 69.1553C765.313 67.9691 765.938 66.7905 766.576 65.6198L764.82 64.6629ZM761.106 71.8542C760.514 73.0657 759.935 74.2848 759.369 75.5111L761.186 76.349C761.745 75.1361 762.318 73.9304 762.903 72.7322L761.106 71.8542ZM757.715 79.2048C757.178 80.4408 756.654 81.6839 756.143 82.9339L757.995 83.69C758.5 82.4538 759.018 81.2244 759.549 80.002L757.715 79.2048ZM754.655 86.698C754.173 87.9573 753.705 89.2233 753.25 90.4958L755.134 91.1686C755.583 89.9102 756.046 88.6582 756.523 87.4127L754.655 86.698ZM751.931 94.3209C751.507 95.5995 751.095 96.8844 750.698 98.1754L752.61 98.7636C753.003 97.4868 753.409 96.2161 753.829 94.9516L751.931 94.3209ZM749.551 102.058C749.183 103.354 748.83 104.657 748.49 105.965L750.426 106.467C750.762 105.174 751.112 103.886 751.475 102.603L749.551 102.058ZM747.518 109.892C747.209 111.203 746.914 112.52 746.633 113.842L748.589 114.257C748.867 112.95 749.159 111.648 749.465 110.351L747.518 109.892ZM745.836 117.812C745.585 119.135 745.349 120.463 745.127 121.795L747.1 122.124C747.32 120.806 747.553 119.492 747.801 118.184L745.836 117.812ZM744.508 125.794C744.316 127.127 744.139 128.466 743.977 129.808L745.962 130.048C746.123 128.721 746.298 127.397 746.488 126.078L744.508 125.794ZM743.534 133.832C743.402 135.171 743.284 136.514 743.181 137.861L745.175 138.014C745.277 136.681 745.394 135.353 745.525 134.028L743.534 133.832ZM742.916 141.9C742.843 143.245 742.784 144.594 742.74 145.947L744.739 146.012C744.783 144.674 744.841 143.34 744.913 142.009L742.916 141.9ZM742.652 149.989C742.645 150.664 742.641 151.34 742.641 152.017H744.641C744.641 151.348 744.645 150.679 744.652 150.011L742.652 149.989ZM742.641 152.017C742.641 152.694 742.645 153.37 742.652 154.046L744.652 154.024C744.645 153.356 744.641 152.687 744.641 152.017H742.641ZM742.74 158.088C742.784 159.44 742.843 160.789 742.916 162.134L744.913 162.025C744.841 160.695 744.783 159.36 744.739 158.022L742.74 158.088ZM743.181 166.173C743.284 167.521 743.402 168.864 743.534 170.203L745.525 170.006C745.394 168.682 745.277 167.353 745.175 166.021L743.181 166.173ZM743.977 174.227C744.139 175.569 744.316 176.907 744.508 178.24L746.488 177.956C746.298 176.637 746.123 175.314 745.962 173.986L743.977 174.227ZM745.127 182.239C745.349 183.572 745.585 184.899 745.836 186.222L747.801 185.85C747.553 184.542 747.32 183.229 747.1 181.911L745.127 182.239ZM746.633 190.193C746.914 191.515 747.209 192.831 747.518 194.142L749.465 193.683C749.159 192.387 748.867 191.085 748.589 189.777L746.633 190.193ZM748.49 198.07C748.83 199.378 749.183 200.68 749.551 201.977L751.475 201.431C751.112 200.149 750.762 198.861 750.426 197.567L748.49 198.07ZM750.698 205.859C751.095 207.15 751.507 208.435 751.932 209.714L753.829 209.083C753.409 207.818 753.003 206.548 752.61 205.271L750.698 205.859ZM753.25 213.539C753.705 214.811 754.173 216.077 754.655 217.336L756.523 216.622C756.046 215.376 755.583 214.124 755.134 212.866L753.25 213.539ZM756.143 221.101C756.654 222.351 757.178 223.594 757.715 224.83L759.549 224.033C759.018 222.81 758.5 221.581 757.995 220.345L756.143 221.101ZM759.369 228.523C759.935 229.75 760.514 230.969 761.106 232.18L762.903 231.302C762.318 230.104 761.745 228.898 761.186 227.686L759.369 228.523ZM762.923 235.797C763.543 236.996 764.175 238.188 764.82 239.372L766.576 238.415C765.938 237.244 765.313 236.065 764.7 234.879L762.923 235.797ZM766.796 242.904C767.468 244.075 768.153 245.238 768.85 246.392L770.562 245.359C769.873 244.217 769.195 243.067 768.531 241.909L766.796 242.904ZM770.98 249.834C771.703 250.973 772.439 252.104 773.186 253.227L774.851 252.118C774.111 251.008 773.384 249.889 772.669 248.762L770.98 249.834ZM775.467 256.571C776.239 257.677 777.024 258.775 777.82 259.863L779.434 258.683C778.647 257.606 777.871 256.52 777.106 255.426L775.467 256.571ZM780.246 263.103C781.066 264.174 781.899 265.236 782.742 266.289L784.303 265.038C783.468 263.997 782.645 262.947 781.834 261.887L780.246 263.103ZM785.309 269.419C786.176 270.453 787.054 271.477 787.943 272.491L789.447 271.173C788.567 270.17 787.699 269.156 786.841 268.134L785.309 269.419ZM790.644 275.505C791.556 276.5 792.478 277.484 793.411 278.459L794.856 277.075C793.933 276.112 793.02 275.138 792.119 274.154L790.644 275.505ZM796.243 281.351C797.197 282.304 798.162 283.247 799.137 284.18L800.519 282.734C799.555 281.812 798.6 280.879 797.656 279.936L796.243 281.351ZM802.093 286.945C803.088 287.855 804.093 288.755 805.109 289.644L806.426 288.139C805.422 287.26 804.427 286.37 803.443 285.469L802.093 286.945ZM808.183 292.276C809.218 293.141 810.262 293.996 811.315 294.839L812.565 293.278C811.523 292.444 810.49 291.598 809.467 290.742L808.183 292.276ZM814.503 297.333C815.574 298.153 816.655 298.961 817.745 299.757L818.924 298.142C817.846 297.354 816.778 296.555 815.718 295.745L814.503 297.333ZM821.039 302.108C821.592 302.493 822.148 302.876 822.706 303.256L823.831 301.603C823.28 301.227 822.73 300.848 822.183 300.467L821.039 302.108Z" fill="#00FE00" mask="url(#path-1-outside-1_1_221)"/>
</svg>
